<mxfile host="Electron" agent="Mozilla/5.0 (Windows NT 10.0; Win64; x64) AppleWebKit/537.36 (KHTML, like Gecko) draw.io/26.0.15 Chrome/132.0.6834.196 Electron/34.2.0 Safari/537.36" version="26.0.15">
  <diagram name="Diagrama_Clases" id="7XVjU1k5-b-SCjmjIXmG">
    <mxGraphModel dx="2901" dy="1903" grid="1" gridSize="10" guides="1" tooltips="1" connect="1" arrows="1" fold="1" page="1" pageScale="1" pageWidth="827" pageHeight="1169" math="0" shadow="0">
      <root>
        <mxCell id="0" />
        <mxCell id="1" parent="0" />
        <mxCell id="Ocv0W2CAT3Qs6bE-MKSK-10" style="edgeStyle=orthogonalEdgeStyle;rounded=0;orthogonalLoop=1;jettySize=auto;html=1;dashed=1;endArrow=block;endFill=0;endSize=20;" parent="1" source="Ocv0W2CAT3Qs6bE-MKSK-1" target="Ocv0W2CAT3Qs6bE-MKSK-6" edge="1">
          <mxGeometry relative="1" as="geometry">
            <Array as="points">
              <mxPoint x="320" y="207" />
            </Array>
          </mxGeometry>
        </mxCell>
        <mxCell id="Ocv0W2CAT3Qs6bE-MKSK-26" style="edgeStyle=orthogonalEdgeStyle;rounded=0;orthogonalLoop=1;jettySize=auto;html=1;endArrow=open;endFill=0;dashed=1;endSize=20;" parent="1" source="Ocv0W2CAT3Qs6bE-MKSK-1" target="Ocv0W2CAT3Qs6bE-MKSK-18" edge="1">
          <mxGeometry relative="1" as="geometry">
            <Array as="points">
              <mxPoint x="135" y="383" />
            </Array>
          </mxGeometry>
        </mxCell>
        <mxCell id="Ocv0W2CAT3Qs6bE-MKSK-1" value="&lt;i&gt;&amp;lt;&amp;lt;Abstract&amp;gt;&amp;gt;&lt;/i&gt;&lt;div&gt;&lt;i style=&quot;background-color: transparent; color: light-dark(rgb(0, 0, 0), rgb(255, 255, 255));&quot;&gt;Piece&lt;/i&gt;&lt;/div&gt;" style="swimlane;fontStyle=1;align=center;verticalAlign=top;childLayout=stackLayout;horizontal=1;startSize=40;horizontalStack=0;resizeParent=1;resizeParentMax=0;resizeLast=0;collapsible=1;marginBottom=0;whiteSpace=wrap;html=1;" parent="1" vertex="1">
          <mxGeometry x="150" y="320" width="310" height="400" as="geometry" />
        </mxCell>
        <mxCell id="SkFEskxKewbuhvQvfSpz-84" value="# image : ImageIcon" style="text;strokeColor=none;fillColor=none;align=left;verticalAlign=top;spacingLeft=4;spacingRight=4;overflow=hidden;rotatable=0;points=[[0,0.5],[1,0.5]];portConstraint=eastwest;whiteSpace=wrap;html=1;" parent="Ocv0W2CAT3Qs6bE-MKSK-1" vertex="1">
          <mxGeometry y="40" width="310" height="26" as="geometry" />
        </mxCell>
        <mxCell id="Ocv0W2CAT3Qs6bE-MKSK-2" value="# value : int" style="text;strokeColor=none;fillColor=none;align=left;verticalAlign=top;spacingLeft=4;spacingRight=4;overflow=hidden;rotatable=0;points=[[0,0.5],[1,0.5]];portConstraint=eastwest;whiteSpace=wrap;html=1;" parent="Ocv0W2CAT3Qs6bE-MKSK-1" vertex="1">
          <mxGeometry y="66" width="310" height="26" as="geometry" />
        </mxCell>
        <mxCell id="Ocv0W2CAT3Qs6bE-MKSK-5" value="# isWhite : boolean" style="text;strokeColor=none;fillColor=none;align=left;verticalAlign=top;spacingLeft=4;spacingRight=4;overflow=hidden;rotatable=0;points=[[0,0.5],[1,0.5]];portConstraint=eastwest;whiteSpace=wrap;html=1;" parent="Ocv0W2CAT3Qs6bE-MKSK-1" vertex="1">
          <mxGeometry y="92" width="310" height="26" as="geometry" />
        </mxCell>
        <mxCell id="SkFEskxKewbuhvQvfSpz-17" value="# movements : List&amp;lt;Movement&amp;gt;" style="text;strokeColor=none;fillColor=none;align=left;verticalAlign=top;spacingLeft=4;spacingRight=4;overflow=hidden;rotatable=0;points=[[0,0.5],[1,0.5]];portConstraint=eastwest;whiteSpace=wrap;html=1;" parent="Ocv0W2CAT3Qs6bE-MKSK-1" vertex="1">
          <mxGeometry y="118" width="310" height="26" as="geometry" />
        </mxCell>
        <mxCell id="Ocv0W2CAT3Qs6bE-MKSK-3" value="" style="line;strokeWidth=1;fillColor=none;align=left;verticalAlign=middle;spacingTop=-1;spacingLeft=3;spacingRight=3;rotatable=0;labelPosition=right;points=[];portConstraint=eastwest;strokeColor=inherit;" parent="Ocv0W2CAT3Qs6bE-MKSK-1" vertex="1">
          <mxGeometry y="144" width="310" height="8" as="geometry" />
        </mxCell>
        <mxCell id="SkFEskxKewbuhvQvfSpz-77" value="+ Piece()" style="text;strokeColor=none;fillColor=none;align=left;verticalAlign=top;spacingLeft=4;spacingRight=4;overflow=hidden;rotatable=0;points=[[0,0.5],[1,0.5]];portConstraint=eastwest;whiteSpace=wrap;html=1;" parent="Ocv0W2CAT3Qs6bE-MKSK-1" vertex="1">
          <mxGeometry y="152" width="310" height="30" as="geometry" />
        </mxCell>
        <mxCell id="SkFEskxKewbuhvQvfSpz-76" value="&lt;i&gt;# &amp;lt;&amp;lt;Abstract&amp;gt;&amp;gt;&amp;nbsp;setMovements() : void&lt;/i&gt;" style="text;strokeColor=none;fillColor=none;align=left;verticalAlign=top;spacingLeft=4;spacingRight=4;overflow=hidden;rotatable=0;points=[[0,0.5],[1,0.5]];portConstraint=eastwest;whiteSpace=wrap;html=1;" parent="Ocv0W2CAT3Qs6bE-MKSK-1" vertex="1">
          <mxGeometry y="182" width="310" height="30" as="geometry" />
        </mxCell>
        <mxCell id="Ocv0W2CAT3Qs6bE-MKSK-4" value="+ move (&lt;div&gt;&lt;span style=&quot;white-space: pre;&quot;&gt;&#x9;&lt;/span&gt;position : Position&lt;/div&gt;&lt;div&gt;&lt;span style=&quot;white-space: pre;&quot;&gt;&#x9;&lt;/span&gt;boardInstance :&amp;nbsp;&lt;span style=&quot;background-color: transparent; color: light-dark(rgb(0, 0, 0), rgb(255, 255, 255));&quot;&gt;DisplayableCell&lt;/span&gt;&lt;span style=&quot;background-color: transparent; color: light-dark(rgb(0, 0, 0), rgb(255, 255, 255));&quot;&gt;&amp;nbsp;[ ] [ ]&lt;/span&gt;&lt;/div&gt;&lt;div&gt;&amp;nbsp; ) : int&lt;/div&gt;" style="text;strokeColor=none;fillColor=none;align=left;verticalAlign=top;spacingLeft=4;spacingRight=4;overflow=hidden;rotatable=0;points=[[0,0.5],[1,0.5]];portConstraint=eastwest;whiteSpace=wrap;html=1;" parent="Ocv0W2CAT3Qs6bE-MKSK-1" vertex="1">
          <mxGeometry y="212" width="310" height="74" as="geometry" />
        </mxCell>
        <mxCell id="SkFEskxKewbuhvQvfSpz-90" value="+ whereCanIMove(&lt;div&gt;&lt;span style=&quot;white-space: pre;&quot;&gt;&#x9;&lt;/span&gt;boardInstance :&amp;nbsp;&lt;span style=&quot;color: light-dark(rgb(0, 0, 0), rgb(255, 255, 255)); background-color: transparent;&quot;&gt;DisplayableCell&lt;/span&gt;&lt;span style=&quot;color: light-dark(rgb(0, 0, 0), rgb(255, 255, 255)); background-color: transparent;&quot;&gt;&amp;nbsp;[ ] [ ]&lt;/span&gt;&lt;/div&gt;&lt;div&gt;&amp;nbsp; ) : List &amp;lt;Position&amp;gt;&lt;/div&gt;" style="text;strokeColor=none;fillColor=none;align=left;verticalAlign=top;spacingLeft=4;spacingRight=4;overflow=hidden;rotatable=0;points=[[0,0.5],[1,0.5]];portConstraint=eastwest;whiteSpace=wrap;html=1;" parent="Ocv0W2CAT3Qs6bE-MKSK-1" vertex="1">
          <mxGeometry y="286" width="310" height="54" as="geometry" />
        </mxCell>
        <mxCell id="SkFEskxKewbuhvQvfSpz-89" value="+ whereCanIAttack(&lt;div&gt;&lt;span style=&quot;white-space: pre;&quot;&gt;&#x9;&lt;/span&gt;&lt;span style=&quot;background-color: transparent; color: light-dark(rgb(0, 0, 0), rgb(255, 255, 255));&quot;&gt;boardInstance :&amp;nbsp;&lt;/span&gt;&lt;span style=&quot;background-color: transparent; color: light-dark(rgb(0, 0, 0), rgb(255, 255, 255));&quot;&gt;DisplayableCell&lt;/span&gt;&lt;span style=&quot;background-color: transparent; color: light-dark(rgb(0, 0, 0), rgb(255, 255, 255));&quot;&gt;&amp;nbsp;[ ] [ ]&lt;/span&gt;&lt;/div&gt;&lt;div&gt;&lt;span style=&quot;background-color: transparent; color: light-dark(rgb(0, 0, 0), rgb(255, 255, 255));&quot;&gt;&amp;nbsp; ) : List &amp;lt;Position&amp;gt;&lt;/span&gt;&lt;/div&gt;" style="text;strokeColor=none;fillColor=none;align=left;verticalAlign=top;spacingLeft=4;spacingRight=4;overflow=hidden;rotatable=0;points=[[0,0.5],[1,0.5]];portConstraint=eastwest;whiteSpace=wrap;html=1;" parent="Ocv0W2CAT3Qs6bE-MKSK-1" vertex="1">
          <mxGeometry y="340" width="310" height="60" as="geometry" />
        </mxCell>
        <mxCell id="Ocv0W2CAT3Qs6bE-MKSK-6" value="&lt;div&gt;&lt;i&gt;&amp;lt;&amp;lt;Abstract&amp;gt;&amp;gt;&lt;/i&gt;&lt;/div&gt;&lt;i&gt;DisplayableCell&lt;/i&gt;" style="swimlane;fontStyle=1;align=center;verticalAlign=top;childLayout=stackLayout;horizontal=1;startSize=40;horizontalStack=0;resizeParent=1;resizeParentMax=0;resizeLast=0;collapsible=1;marginBottom=0;whiteSpace=wrap;html=1;" parent="1" vertex="1">
          <mxGeometry x="240" y="120" width="320" height="160" as="geometry" />
        </mxCell>
        <mxCell id="VuiYVt0eshxoId6qfpAP-8" value="# position : Position" style="text;strokeColor=none;fillColor=none;align=left;verticalAlign=top;spacingLeft=4;spacingRight=4;overflow=hidden;rotatable=0;points=[[0,0.5],[1,0.5]];portConstraint=eastwest;whiteSpace=wrap;html=1;" vertex="1" parent="Ocv0W2CAT3Qs6bE-MKSK-6">
          <mxGeometry y="40" width="320" height="26" as="geometry" />
        </mxCell>
        <mxCell id="Ocv0W2CAT3Qs6bE-MKSK-8" value="" style="line;strokeWidth=1;fillColor=none;align=left;verticalAlign=middle;spacingTop=-1;spacingLeft=3;spacingRight=3;rotatable=0;labelPosition=right;points=[];portConstraint=eastwest;strokeColor=inherit;" parent="Ocv0W2CAT3Qs6bE-MKSK-6" vertex="1">
          <mxGeometry y="66" width="320" height="8" as="geometry" />
        </mxCell>
        <mxCell id="SkFEskxKewbuhvQvfSpz-80" value="+ getPosition() : Position" style="text;strokeColor=none;fillColor=none;align=left;verticalAlign=top;spacingLeft=4;spacingRight=4;overflow=hidden;rotatable=0;points=[[0,0.5],[1,0.5]];portConstraint=eastwest;whiteSpace=wrap;html=1;" parent="Ocv0W2CAT3Qs6bE-MKSK-6" vertex="1">
          <mxGeometry y="74" width="320" height="26" as="geometry" />
        </mxCell>
        <mxCell id="SkFEskxKewbuhvQvfSpz-83" value="&lt;i&gt;+ &amp;lt;&amp;lt;Abstract&amp;gt;&amp;gt;&amp;nbsp;&lt;/i&gt;&amp;nbsp;getPiecePanel() : JPanel" style="text;strokeColor=none;fillColor=none;align=left;verticalAlign=top;spacingLeft=4;spacingRight=4;overflow=hidden;rotatable=0;points=[[0,0.5],[1,0.5]];portConstraint=eastwest;whiteSpace=wrap;html=1;" parent="Ocv0W2CAT3Qs6bE-MKSK-6" vertex="1">
          <mxGeometry y="100" width="320" height="30" as="geometry" />
        </mxCell>
        <mxCell id="06TTXpgL2270FxeW5wfN-28" value="+&lt;i&gt;&amp;nbsp;&amp;lt;&amp;lt;Abstract&amp;gt;&amp;gt;&amp;nbsp;&lt;/i&gt;&amp;nbsp;getInstance() : DisplayableCell" style="text;strokeColor=none;fillColor=none;align=left;verticalAlign=top;spacingLeft=4;spacingRight=4;overflow=hidden;rotatable=0;points=[[0,0.5],[1,0.5]];portConstraint=eastwest;whiteSpace=wrap;html=1;" parent="Ocv0W2CAT3Qs6bE-MKSK-6" vertex="1">
          <mxGeometry y="130" width="320" height="30" as="geometry" />
        </mxCell>
        <mxCell id="Ocv0W2CAT3Qs6bE-MKSK-11" value="&lt;i&gt;Blank&lt;/i&gt;" style="swimlane;fontStyle=1;align=center;verticalAlign=top;childLayout=stackLayout;horizontal=1;startSize=30;horizontalStack=0;resizeParent=1;resizeParentMax=0;resizeLast=0;collapsible=1;marginBottom=0;whiteSpace=wrap;html=1;" parent="1" vertex="1">
          <mxGeometry x="470" y="320" width="160" height="38" as="geometry" />
        </mxCell>
        <mxCell id="Ocv0W2CAT3Qs6bE-MKSK-14" value="" style="line;strokeWidth=1;fillColor=none;align=left;verticalAlign=middle;spacingTop=-1;spacingLeft=3;spacingRight=3;rotatable=0;labelPosition=right;points=[];portConstraint=eastwest;strokeColor=inherit;" parent="Ocv0W2CAT3Qs6bE-MKSK-11" vertex="1">
          <mxGeometry y="30" width="160" height="8" as="geometry" />
        </mxCell>
        <mxCell id="Ocv0W2CAT3Qs6bE-MKSK-17" style="edgeStyle=orthogonalEdgeStyle;rounded=0;orthogonalLoop=1;jettySize=auto;html=1;dashed=1;endArrow=block;endFill=0;endSize=20;" parent="1" source="Ocv0W2CAT3Qs6bE-MKSK-11" target="Ocv0W2CAT3Qs6bE-MKSK-6" edge="1">
          <mxGeometry relative="1" as="geometry">
            <mxPoint x="330" y="330" as="sourcePoint" />
            <mxPoint x="660" y="190" as="targetPoint" />
            <Array as="points">
              <mxPoint x="520" y="290" />
              <mxPoint x="520" y="290" />
            </Array>
          </mxGeometry>
        </mxCell>
        <mxCell id="Ocv0W2CAT3Qs6bE-MKSK-25" style="edgeStyle=orthogonalEdgeStyle;rounded=0;orthogonalLoop=1;jettySize=auto;html=1;endArrow=diamondThin;endFill=1;endSize=20;" parent="1" source="Ocv0W2CAT3Qs6bE-MKSK-18" target="Ocv0W2CAT3Qs6bE-MKSK-6" edge="1">
          <mxGeometry relative="1" as="geometry" />
        </mxCell>
        <mxCell id="Ocv0W2CAT3Qs6bE-MKSK-18" value="Position" style="swimlane;fontStyle=1;align=center;verticalAlign=top;childLayout=stackLayout;horizontal=1;startSize=26;horizontalStack=0;resizeParent=1;resizeParentMax=0;resizeLast=0;collapsible=1;marginBottom=0;whiteSpace=wrap;html=1;" parent="1" vertex="1">
          <mxGeometry x="20" y="-260" width="410" height="298" as="geometry" />
        </mxCell>
        <mxCell id="Ocv0W2CAT3Qs6bE-MKSK-23" value="- row: int" style="text;strokeColor=none;fillColor=none;align=left;verticalAlign=top;spacingLeft=4;spacingRight=4;overflow=hidden;rotatable=0;points=[[0,0.5],[1,0.5]];portConstraint=eastwest;whiteSpace=wrap;html=1;" parent="Ocv0W2CAT3Qs6bE-MKSK-18" vertex="1">
          <mxGeometry y="26" width="410" height="26" as="geometry" />
        </mxCell>
        <mxCell id="Ocv0W2CAT3Qs6bE-MKSK-19" value="- column : int" style="text;strokeColor=none;fillColor=none;align=left;verticalAlign=top;spacingLeft=4;spacingRight=4;overflow=hidden;rotatable=0;points=[[0,0.5],[1,0.5]];portConstraint=eastwest;whiteSpace=wrap;html=1;" parent="Ocv0W2CAT3Qs6bE-MKSK-18" vertex="1">
          <mxGeometry y="52" width="410" height="26" as="geometry" />
        </mxCell>
        <mxCell id="Ocv0W2CAT3Qs6bE-MKSK-20" value="" style="line;strokeWidth=1;fillColor=none;align=left;verticalAlign=middle;spacingTop=-1;spacingLeft=3;spacingRight=3;rotatable=0;labelPosition=right;points=[];portConstraint=eastwest;strokeColor=inherit;" parent="Ocv0W2CAT3Qs6bE-MKSK-18" vertex="1">
          <mxGeometry y="78" width="410" height="8" as="geometry" />
        </mxCell>
        <mxCell id="Ocv0W2CAT3Qs6bE-MKSK-21" value="+ Position(row : int, column : int)" style="text;strokeColor=none;fillColor=none;align=left;verticalAlign=top;spacingLeft=4;spacingRight=4;overflow=hidden;rotatable=0;points=[[0,0.5],[1,0.5]];portConstraint=eastwest;whiteSpace=wrap;html=1;" parent="Ocv0W2CAT3Qs6bE-MKSK-18" vertex="1">
          <mxGeometry y="86" width="410" height="26" as="geometry" />
        </mxCell>
        <mxCell id="SkFEskxKewbuhvQvfSpz-79" value="+ positionFromHere(VerticalSteps : int, HorizontalSteps : int) : Position" style="text;strokeColor=none;fillColor=none;align=left;verticalAlign=top;spacingLeft=4;spacingRight=4;overflow=hidden;rotatable=0;points=[[0,0.5],[1,0.5]];portConstraint=eastwest;whiteSpace=wrap;html=1;" parent="Ocv0W2CAT3Qs6bE-MKSK-18" vertex="1">
          <mxGeometry y="112" width="410" height="26" as="geometry" />
        </mxCell>
        <mxCell id="06TTXpgL2270FxeW5wfN-21" value="+ isTheSame(Position position) : boolean" style="text;strokeColor=none;fillColor=none;align=left;verticalAlign=top;spacingLeft=4;spacingRight=4;overflow=hidden;rotatable=0;points=[[0,0.5],[1,0.5]];portConstraint=eastwest;whiteSpace=wrap;html=1;" parent="Ocv0W2CAT3Qs6bE-MKSK-18" vertex="1">
          <mxGeometry y="138" width="410" height="26" as="geometry" />
        </mxCell>
        <mxCell id="06TTXpgL2270FxeW5wfN-22" value="isUnderOf(Position position) : boolean" style="text;strokeColor=none;fillColor=none;align=left;verticalAlign=top;spacingLeft=4;spacingRight=4;overflow=hidden;rotatable=0;points=[[0,0.5],[1,0.5]];portConstraint=eastwest;whiteSpace=wrap;html=1;" parent="Ocv0W2CAT3Qs6bE-MKSK-18" vertex="1">
          <mxGeometry y="164" width="410" height="26" as="geometry" />
        </mxCell>
        <mxCell id="06TTXpgL2270FxeW5wfN-23" value="isUpperOf(Position position) : boolean" style="text;strokeColor=none;fillColor=none;align=left;verticalAlign=top;spacingLeft=4;spacingRight=4;overflow=hidden;rotatable=0;points=[[0,0.5],[1,0.5]];portConstraint=eastwest;whiteSpace=wrap;html=1;" parent="Ocv0W2CAT3Qs6bE-MKSK-18" vertex="1">
          <mxGeometry y="190" width="410" height="26" as="geometry" />
        </mxCell>
        <mxCell id="06TTXpgL2270FxeW5wfN-25" value="isToTheRightOf(Position position) : boolean" style="text;strokeColor=none;fillColor=none;align=left;verticalAlign=top;spacingLeft=4;spacingRight=4;overflow=hidden;rotatable=0;points=[[0,0.5],[1,0.5]];portConstraint=eastwest;whiteSpace=wrap;html=1;" parent="Ocv0W2CAT3Qs6bE-MKSK-18" vertex="1">
          <mxGeometry y="216" width="410" height="26" as="geometry" />
        </mxCell>
        <mxCell id="06TTXpgL2270FxeW5wfN-24" value="isToTheLeftOf(Position position) : boolean" style="text;strokeColor=none;fillColor=none;align=left;verticalAlign=top;spacingLeft=4;spacingRight=4;overflow=hidden;rotatable=0;points=[[0,0.5],[1,0.5]];portConstraint=eastwest;whiteSpace=wrap;html=1;" parent="Ocv0W2CAT3Qs6bE-MKSK-18" vertex="1">
          <mxGeometry y="242" width="410" height="26" as="geometry" />
        </mxCell>
        <mxCell id="06TTXpgL2270FxeW5wfN-29" value="+ getInstance() : Position" style="text;strokeColor=none;fillColor=none;align=left;verticalAlign=top;spacingLeft=4;spacingRight=4;overflow=hidden;rotatable=0;points=[[0,0.5],[1,0.5]];portConstraint=eastwest;whiteSpace=wrap;html=1;" parent="Ocv0W2CAT3Qs6bE-MKSK-18" vertex="1">
          <mxGeometry y="268" width="410" height="30" as="geometry" />
        </mxCell>
        <mxCell id="J2jW2XG6HsNSC65ffWOk-1" value="&amp;lt;&amp;lt;Abstract&amp;gt;&amp;gt;&lt;div&gt;Movement&lt;/div&gt;" style="swimlane;fontStyle=1;align=center;verticalAlign=top;childLayout=stackLayout;horizontal=1;startSize=40;horizontalStack=0;resizeParent=1;resizeParentMax=0;resizeLast=0;collapsible=1;marginBottom=0;whiteSpace=wrap;html=1;" parent="1" vertex="1">
          <mxGeometry x="-421.5" y="-98" width="260" height="560" as="geometry" />
        </mxCell>
        <mxCell id="J2jW2XG6HsNSC65ffWOk-2" value="- instantMove : boolean" style="text;strokeColor=none;fillColor=none;align=left;verticalAlign=top;spacingLeft=4;spacingRight=4;overflow=hidden;rotatable=0;points=[[0,0.5],[1,0.5]];portConstraint=eastwest;whiteSpace=wrap;html=1;" parent="J2jW2XG6HsNSC65ffWOk-1" vertex="1">
          <mxGeometry y="40" width="260" height="26" as="geometry" />
        </mxCell>
        <mxCell id="SkFEskxKewbuhvQvfSpz-25" value="- haveToEat : boolean" style="text;strokeColor=none;fillColor=none;align=left;verticalAlign=top;spacingLeft=4;spacingRight=4;overflow=hidden;rotatable=0;points=[[0,0.5],[1,0.5]];portConstraint=eastwest;whiteSpace=wrap;html=1;" parent="J2jW2XG6HsNSC65ffWOk-1" vertex="1">
          <mxGeometry y="66" width="260" height="26" as="geometry" />
        </mxCell>
        <mxCell id="SkFEskxKewbuhvQvfSpz-48" value="- haveToNotEat : boolean" style="text;strokeColor=none;fillColor=none;align=left;verticalAlign=top;spacingLeft=4;spacingRight=4;overflow=hidden;rotatable=0;points=[[0,0.5],[1,0.5]];portConstraint=eastwest;whiteSpace=wrap;html=1;" parent="J2jW2XG6HsNSC65ffWOk-1" vertex="1">
          <mxGeometry y="92" width="260" height="26" as="geometry" />
        </mxCell>
        <mxCell id="J2jW2XG6HsNSC65ffWOk-4" value="" style="line;strokeWidth=1;fillColor=none;align=left;verticalAlign=middle;spacingTop=-1;spacingLeft=3;spacingRight=3;rotatable=0;labelPosition=right;points=[];portConstraint=eastwest;strokeColor=inherit;" parent="J2jW2XG6HsNSC65ffWOk-1" vertex="1">
          <mxGeometry y="118" width="260" height="8" as="geometry" />
        </mxCell>
        <mxCell id="J2jW2XG6HsNSC65ffWOk-5" value="+ canIMove(&lt;div&gt;&lt;span style=&quot;white-space: pre;&quot;&gt;&#x9;&lt;/span&gt;from: Position,&lt;/div&gt;&lt;div&gt;&lt;span style=&quot;white-space: pre;&quot;&gt;&#x9;&lt;/span&gt;to : Position,&lt;br&gt;&lt;/div&gt;&lt;div&gt;&lt;span style=&quot;white-space: pre;&quot;&gt;&#x9;&lt;/span&gt;boardInstance :&amp;nbsp;&lt;span style=&quot;background-color: transparent; color: light-dark(rgb(0, 0, 0), rgb(255, 255, 255));&quot;&gt;DisplayableCell&lt;/span&gt;&lt;span style=&quot;background-color: transparent; color: light-dark(rgb(0, 0, 0), rgb(255, 255, 255));&quot;&gt;&amp;nbsp; [ ] [ ]&lt;/span&gt;&lt;/div&gt;&lt;div&gt;&amp;nbsp; ) : int&lt;/div&gt;" style="text;strokeColor=none;fillColor=none;align=left;verticalAlign=top;spacingLeft=4;spacingRight=4;overflow=hidden;rotatable=0;points=[[0,0.5],[1,0.5]];portConstraint=eastwest;whiteSpace=wrap;html=1;" parent="J2jW2XG6HsNSC65ffWOk-1" vertex="1">
          <mxGeometry y="126" width="260" height="90" as="geometry" />
        </mxCell>
        <mxCell id="SkFEskxKewbuhvQvfSpz-38" value="+ whereCanIMove(&lt;div&gt;&lt;span style=&quot;white-space: pre;&quot;&gt;&#x9;&lt;/span&gt;from : Position&lt;br&gt;&lt;div&gt;&lt;span style=&quot;white-space: pre;&quot;&gt;&#x9;&lt;/span&gt;&lt;span style=&quot;background-color: transparent; color: light-dark(rgb(0, 0, 0), rgb(255, 255, 255));&quot;&gt;boardInstance :&amp;nbsp;&lt;/span&gt;&lt;span style=&quot;background-color: transparent; color: light-dark(rgb(0, 0, 0), rgb(255, 255, 255));&quot;&gt;DisplayableCell&lt;/span&gt;&lt;span style=&quot;background-color: transparent; color: light-dark(rgb(0, 0, 0), rgb(255, 255, 255));&quot;&gt;&amp;nbsp;[ ] [ ]&lt;/span&gt;&lt;/div&gt;&lt;div&gt;&lt;span style=&quot;background-color: transparent; color: light-dark(rgb(0, 0, 0), rgb(255, 255, 255));&quot;&gt;&amp;nbsp; ) : List &amp;lt;Position&amp;gt;&lt;/span&gt;&lt;/div&gt;&lt;/div&gt;" style="text;strokeColor=none;fillColor=none;align=left;verticalAlign=top;spacingLeft=4;spacingRight=4;overflow=hidden;rotatable=0;points=[[0,0.5],[1,0.5]];portConstraint=eastwest;whiteSpace=wrap;html=1;" parent="J2jW2XG6HsNSC65ffWOk-1" vertex="1">
          <mxGeometry y="216" width="260" height="74" as="geometry" />
        </mxCell>
        <mxCell id="SkFEskxKewbuhvQvfSpz-47" value="+ whereCanIAttack(&lt;div&gt;&lt;span style=&quot;white-space: pre;&quot;&gt;&#x9;&lt;/span&gt;&lt;span style=&quot;background-color: transparent; color: light-dark(rgb(0, 0, 0), rgb(255, 255, 255));&quot;&gt;boardInstance :&amp;nbsp;&lt;/span&gt;&lt;span style=&quot;background-color: transparent; color: light-dark(rgb(0, 0, 0), rgb(255, 255, 255));&quot;&gt;DisplayableCell&lt;/span&gt;&lt;span style=&quot;background-color: transparent; color: light-dark(rgb(0, 0, 0), rgb(255, 255, 255));&quot;&gt;&amp;nbsp;[ ] [ ]&lt;/span&gt;&lt;/div&gt;&lt;div&gt;&lt;span style=&quot;background-color: transparent; color: light-dark(rgb(0, 0, 0), rgb(255, 255, 255));&quot;&gt;&lt;span style=&quot;white-space: pre;&quot;&gt;&#x9;&lt;/span&gt;from : Position&lt;/span&gt;&lt;/div&gt;&lt;div&gt;&lt;span style=&quot;background-color: transparent; color: light-dark(rgb(0, 0, 0), rgb(255, 255, 255));&quot;&gt;&amp;nbsp; ) : List &amp;lt;Position&amp;gt;&lt;/span&gt;&lt;/div&gt;" style="text;strokeColor=none;fillColor=none;align=left;verticalAlign=top;spacingLeft=4;spacingRight=4;overflow=hidden;rotatable=0;points=[[0,0.5],[1,0.5]];portConstraint=eastwest;whiteSpace=wrap;html=1;" parent="J2jW2XG6HsNSC65ffWOk-1" vertex="1">
          <mxGeometry y="290" width="260" height="70" as="geometry" />
        </mxCell>
        <mxCell id="VuiYVt0eshxoId6qfpAP-11" value="#&amp;nbsp;&lt;i&gt;&amp;lt;&amp;lt;Abstract&amp;gt;&amp;gt;&lt;/i&gt;&amp;nbsp;whereCanI(&lt;div&gt;&lt;span style=&quot;white-space: pre;&quot;&gt;&#x9;&lt;/span&gt;from : Position&lt;br&gt;&lt;div&gt;&lt;span style=&quot;white-space: pre;&quot;&gt;&#x9;&lt;/span&gt;&lt;span style=&quot;background-color: transparent; color: light-dark(rgb(0, 0, 0), rgb(255, 255, 255));&quot;&gt;boardInstance :&amp;nbsp;&lt;/span&gt;&lt;span style=&quot;background-color: transparent; color: light-dark(rgb(0, 0, 0), rgb(255, 255, 255));&quot;&gt;DisplayableCell&lt;/span&gt;&lt;span style=&quot;background-color: transparent; color: light-dark(rgb(0, 0, 0), rgb(255, 255, 255));&quot;&gt;&amp;nbsp;[ ] [ ],&lt;/span&gt;&lt;/div&gt;&lt;div&gt;&lt;span style=&quot;background-color: transparent; color: light-dark(rgb(0, 0, 0), rgb(255, 255, 255));&quot;&gt;&lt;span style=&quot;white-space: pre;&quot;&gt;&#x9;&lt;/span&gt;attack : boolean,&lt;br&gt;&lt;/span&gt;&lt;/div&gt;&lt;div&gt;&lt;span style=&quot;background-color: transparent; color: light-dark(rgb(0, 0, 0), rgb(255, 255, 255));&quot;&gt;&lt;span style=&quot;white-space: pre;&quot;&gt;&#x9;&lt;/span&gt;imWhite&lt;br&gt;&lt;/span&gt;&lt;/div&gt;&lt;div&gt;&lt;span style=&quot;background-color: transparent; color: light-dark(rgb(0, 0, 0), rgb(255, 255, 255));&quot;&gt;&amp;nbsp; ) : List &amp;lt;Position&amp;gt;&lt;/span&gt;&lt;/div&gt;&lt;/div&gt;" style="text;strokeColor=none;fillColor=none;align=left;verticalAlign=top;spacingLeft=4;spacingRight=4;overflow=hidden;rotatable=0;points=[[0,0.5],[1,0.5]];portConstraint=eastwest;whiteSpace=wrap;html=1;" vertex="1" parent="J2jW2XG6HsNSC65ffWOk-1">
          <mxGeometry y="360" width="260" height="100" as="geometry" />
        </mxCell>
        <mxCell id="VuiYVt0eshxoId6qfpAP-12" value="#&amp;nbsp;&amp;nbsp;whereCanI(&lt;div&gt;&lt;span style=&quot;white-space: pre;&quot;&gt;&#x9;&lt;/span&gt;DisplayableCell cell,&lt;div&gt;&lt;span style=&quot;background-color: transparent; color: light-dark(rgb(0, 0, 0), rgb(255, 255, 255));&quot;&gt;&lt;span style=&quot;white-space: pre;&quot;&gt;&#x9;&lt;/span&gt;attack : boolean,&lt;br&gt;&lt;/span&gt;&lt;/div&gt;&lt;div&gt;&lt;span style=&quot;background-color: transparent; color: light-dark(rgb(0, 0, 0), rgb(255, 255, 255));&quot;&gt;&lt;span style=&quot;white-space: pre;&quot;&gt;&#x9;&lt;/span&gt;imWhite&lt;br&gt;&lt;/span&gt;&lt;/div&gt;&lt;div&gt;&lt;span style=&quot;background-color: transparent; color: light-dark(rgb(0, 0, 0), rgb(255, 255, 255));&quot;&gt;&amp;nbsp; ) : List &amp;lt;Position&amp;gt;&lt;/span&gt;&lt;/div&gt;&lt;/div&gt;" style="text;strokeColor=none;fillColor=none;align=left;verticalAlign=top;spacingLeft=4;spacingRight=4;overflow=hidden;rotatable=0;points=[[0,0.5],[1,0.5]];portConstraint=eastwest;whiteSpace=wrap;html=1;" vertex="1" parent="J2jW2XG6HsNSC65ffWOk-1">
          <mxGeometry y="460" width="260" height="100" as="geometry" />
        </mxCell>
        <mxCell id="SkFEskxKewbuhvQvfSpz-3" value="&lt;span style=&quot;&quot;&gt;&lt;font style=&quot;font-size: 10px;&quot;&gt;La idea es que haya varios tipos, uno vertical/horizontal (arriba abajo izquierda o derecha, segun una variable direccion), otra diagonal (la direccion tambien se fija por una variable), y otra &#39;L&#39; para el caballo (se fija la direccion por otra variable).&lt;/font&gt;&lt;/span&gt;&lt;div style=&quot;&quot;&gt;&lt;font style=&quot;font-size: 10px;&quot;&gt;&lt;br&gt;&lt;/font&gt;&lt;/div&gt;&lt;div style=&quot;&quot;&gt;&lt;font style=&quot;font-size: 10px;&quot;&gt;Tambien pueden tener restricciones de paso o no, como el peon que no se puede mover en diaognal si no va a comer, o el caballo que si puede atravesar fichas mientras los demás no&lt;/font&gt;&lt;/div&gt;&lt;div style=&quot;&quot;&gt;&lt;font style=&quot;font-size: 10px;&quot;&gt;&lt;br&gt;&lt;/font&gt;&lt;/div&gt;&lt;div style=&quot;&quot;&gt;&lt;font style=&quot;font-size: 10px;&quot;&gt;El peon tendria tres Movement, uno vertical hacia arriba, y dos diagonales con restricciones&lt;/font&gt;&lt;/div&gt;&lt;div style=&quot;&quot;&gt;&lt;font style=&quot;font-size: 10px;&quot;&gt;&lt;br&gt;&lt;/font&gt;&lt;/div&gt;&lt;div style=&quot;&quot;&gt;&lt;font style=&quot;font-size: 10px;&quot;&gt;Cada clase que implemente la interfaz tendrá que tener un método que compruebe si se puede mover desde una posicion a otra en un determinado tablero.&lt;/font&gt;&lt;/div&gt;&lt;div style=&quot;&quot;&gt;&lt;font style=&quot;font-size: 10px;&quot;&gt;&lt;br&gt;&lt;/font&gt;&lt;/div&gt;&lt;div style=&quot;&quot;&gt;&lt;font style=&quot;font-size: 10px;&quot;&gt;Por ejemplo: al peon le llega la peticion de moverse d2 -&amp;gt; d3, comprueba en la lista de movements y va viendo si algun movimiento de sus disponibles acepta ese movimiento, si es asi, el metodo &#39;move&#39; de &#39;Piece&#39; devuelve true.&lt;/font&gt;&lt;/div&gt;" style="shape=callout;whiteSpace=wrap;html=1;perimeter=calloutPerimeter;position2=0.73;base=45;fillColor=#dae8fc;strokeColor=#6c8ebf;align=center;" parent="1" vertex="1">
          <mxGeometry x="-700" y="-394" width="370" height="295" as="geometry" />
        </mxCell>
        <mxCell id="SkFEskxKewbuhvQvfSpz-4" value="VerticalMovement" style="swimlane;fontStyle=1;align=center;verticalAlign=top;childLayout=stackLayout;horizontal=1;startSize=26;horizontalStack=0;resizeParent=1;resizeParentMax=0;resizeLast=0;collapsible=1;marginBottom=0;whiteSpace=wrap;html=1;" parent="1" vertex="1">
          <mxGeometry x="-700" y="550" width="147" height="164" as="geometry" />
        </mxCell>
        <mxCell id="SkFEskxKewbuhvQvfSpz-8" value="toUp : boolean" style="text;strokeColor=none;fillColor=none;align=left;verticalAlign=top;spacingLeft=4;spacingRight=4;overflow=hidden;rotatable=0;points=[[0,0.5],[1,0.5]];portConstraint=eastwest;whiteSpace=wrap;html=1;" parent="SkFEskxKewbuhvQvfSpz-4" vertex="1">
          <mxGeometry y="26" width="147" height="27" as="geometry" />
        </mxCell>
        <mxCell id="SkFEskxKewbuhvQvfSpz-5" value="maxSteps : Integer" style="text;strokeColor=none;fillColor=none;align=left;verticalAlign=top;spacingLeft=4;spacingRight=4;overflow=hidden;rotatable=0;points=[[0,0.5],[1,0.5]];portConstraint=eastwest;whiteSpace=wrap;html=1;" parent="SkFEskxKewbuhvQvfSpz-4" vertex="1">
          <mxGeometry y="53" width="147" height="27" as="geometry" />
        </mxCell>
        <mxCell id="SkFEskxKewbuhvQvfSpz-6" value="" style="line;strokeWidth=1;fillColor=none;align=left;verticalAlign=middle;spacingTop=-1;spacingLeft=3;spacingRight=3;rotatable=0;labelPosition=right;points=[];portConstraint=eastwest;strokeColor=inherit;" parent="SkFEskxKewbuhvQvfSpz-4" vertex="1">
          <mxGeometry y="80" width="147" height="9" as="geometry" />
        </mxCell>
        <mxCell id="SkFEskxKewbuhvQvfSpz-7" value="+ VerticalMovement(&lt;div&gt;&lt;span style=&quot;white-space: pre;&quot;&gt;&#x9;&lt;/span&gt;toUp : boolean,&amp;nbsp;&lt;/div&gt;&lt;div&gt;&lt;span style=&quot;white-space: pre;&quot;&gt;&#x9;&lt;/span&gt;maxSteps :&amp;nbsp;&lt;span style=&quot;background-color: transparent; color: light-dark(rgb(0, 0, 0), rgb(255, 255, 255));&quot;&gt;Integer&lt;/span&gt;&lt;/div&gt;&lt;div&gt;&amp;nbsp; )&lt;/div&gt;" style="text;strokeColor=none;fillColor=none;align=left;verticalAlign=top;spacingLeft=4;spacingRight=4;overflow=hidden;rotatable=0;points=[[0,0.5],[1,0.5]];portConstraint=eastwest;whiteSpace=wrap;html=1;" parent="SkFEskxKewbuhvQvfSpz-4" vertex="1">
          <mxGeometry y="89" width="147" height="75" as="geometry" />
        </mxCell>
        <mxCell id="SkFEskxKewbuhvQvfSpz-10" value="HorizontalMovement" style="swimlane;fontStyle=1;align=center;verticalAlign=top;childLayout=stackLayout;horizontal=1;startSize=26;horizontalStack=0;resizeParent=1;resizeParentMax=0;resizeLast=0;collapsible=1;marginBottom=0;whiteSpace=wrap;html=1;" parent="1" vertex="1">
          <mxGeometry x="-540" y="550" width="157" height="164" as="geometry" />
        </mxCell>
        <mxCell id="SkFEskxKewbuhvQvfSpz-11" value="toRight: boolean" style="text;strokeColor=none;fillColor=none;align=left;verticalAlign=top;spacingLeft=4;spacingRight=4;overflow=hidden;rotatable=0;points=[[0,0.5],[1,0.5]];portConstraint=eastwest;whiteSpace=wrap;html=1;" parent="SkFEskxKewbuhvQvfSpz-10" vertex="1">
          <mxGeometry y="26" width="157" height="27" as="geometry" />
        </mxCell>
        <mxCell id="SkFEskxKewbuhvQvfSpz-12" value="maxSteps : Integer" style="text;strokeColor=none;fillColor=none;align=left;verticalAlign=top;spacingLeft=4;spacingRight=4;overflow=hidden;rotatable=0;points=[[0,0.5],[1,0.5]];portConstraint=eastwest;whiteSpace=wrap;html=1;" parent="SkFEskxKewbuhvQvfSpz-10" vertex="1">
          <mxGeometry y="53" width="157" height="27" as="geometry" />
        </mxCell>
        <mxCell id="SkFEskxKewbuhvQvfSpz-13" value="" style="line;strokeWidth=1;fillColor=none;align=left;verticalAlign=middle;spacingTop=-1;spacingLeft=3;spacingRight=3;rotatable=0;labelPosition=right;points=[];portConstraint=eastwest;strokeColor=inherit;" parent="SkFEskxKewbuhvQvfSpz-10" vertex="1">
          <mxGeometry y="80" width="157" height="9" as="geometry" />
        </mxCell>
        <mxCell id="SkFEskxKewbuhvQvfSpz-14" value="+&amp;nbsp;&lt;span style=&quot;text-align: center;&quot;&gt;HorizontalMovement&lt;/span&gt;(&lt;div&gt;&lt;span style=&quot;white-space: pre;&quot;&gt;&#x9;&lt;/span&gt;toRight : boolean,&amp;nbsp;&lt;/div&gt;&lt;div&gt;&lt;span style=&quot;white-space: pre;&quot;&gt;&#x9;&lt;/span&gt;maxSteps :&amp;nbsp;&lt;span style=&quot;background-color: transparent; color: light-dark(rgb(0, 0, 0), rgb(255, 255, 255));&quot;&gt;Integer&lt;/span&gt;&lt;/div&gt;&lt;div&gt;&amp;nbsp; )&lt;/div&gt;" style="text;strokeColor=none;fillColor=none;align=left;verticalAlign=top;spacingLeft=4;spacingRight=4;overflow=hidden;rotatable=0;points=[[0,0.5],[1,0.5]];portConstraint=eastwest;whiteSpace=wrap;html=1;" parent="SkFEskxKewbuhvQvfSpz-10" vertex="1">
          <mxGeometry y="89" width="157" height="75" as="geometry" />
        </mxCell>
        <mxCell id="SkFEskxKewbuhvQvfSpz-15" style="edgeStyle=orthogonalEdgeStyle;rounded=0;orthogonalLoop=1;jettySize=auto;html=1;endArrow=block;endFill=0;endSize=20;" parent="1" source="SkFEskxKewbuhvQvfSpz-4" target="J2jW2XG6HsNSC65ffWOk-1" edge="1">
          <mxGeometry relative="1" as="geometry">
            <Array as="points">
              <mxPoint x="-626" y="510" />
              <mxPoint x="-290" y="510" />
            </Array>
            <mxPoint x="-280" y="423" as="sourcePoint" />
            <mxPoint x="-186" y="310" as="targetPoint" />
          </mxGeometry>
        </mxCell>
        <mxCell id="SkFEskxKewbuhvQvfSpz-16" style="edgeStyle=orthogonalEdgeStyle;rounded=0;orthogonalLoop=1;jettySize=auto;html=1;endArrow=block;endFill=0;endSize=20;" parent="1" source="SkFEskxKewbuhvQvfSpz-10" target="J2jW2XG6HsNSC65ffWOk-1" edge="1">
          <mxGeometry relative="1" as="geometry">
            <Array as="points">
              <mxPoint x="-460" y="530" />
              <mxPoint x="-290" y="530" />
            </Array>
            <mxPoint x="-630" y="330" as="sourcePoint" />
            <mxPoint x="-280" y="254" as="targetPoint" />
          </mxGeometry>
        </mxCell>
        <mxCell id="SkFEskxKewbuhvQvfSpz-19" style="edgeStyle=orthogonalEdgeStyle;rounded=0;orthogonalLoop=1;jettySize=auto;html=1;endArrow=diamondThin;endFill=1;endSize=20;" parent="1" source="J2jW2XG6HsNSC65ffWOk-1" target="Ocv0W2CAT3Qs6bE-MKSK-1" edge="1">
          <mxGeometry relative="1" as="geometry">
            <mxPoint x="240" y="106" as="sourcePoint" />
            <mxPoint x="504" y="180" as="targetPoint" />
            <Array as="points">
              <mxPoint x="80" y="194" />
              <mxPoint x="80" y="410" />
            </Array>
          </mxGeometry>
        </mxCell>
        <mxCell id="SkFEskxKewbuhvQvfSpz-20" value="DiagonalMovement" style="swimlane;fontStyle=1;align=center;verticalAlign=top;childLayout=stackLayout;horizontal=1;startSize=26;horizontalStack=0;resizeParent=1;resizeParentMax=0;resizeLast=0;collapsible=1;marginBottom=0;whiteSpace=wrap;html=1;" parent="1" vertex="1">
          <mxGeometry x="-370" y="550" width="157" height="200" as="geometry" />
        </mxCell>
        <mxCell id="SkFEskxKewbuhvQvfSpz-21" value="toRight: boolean" style="text;strokeColor=none;fillColor=none;align=left;verticalAlign=top;spacingLeft=4;spacingRight=4;overflow=hidden;rotatable=0;points=[[0,0.5],[1,0.5]];portConstraint=eastwest;whiteSpace=wrap;html=1;" parent="SkFEskxKewbuhvQvfSpz-20" vertex="1">
          <mxGeometry y="26" width="157" height="27" as="geometry" />
        </mxCell>
        <mxCell id="SkFEskxKewbuhvQvfSpz-27" value="toUp: boolean" style="text;strokeColor=none;fillColor=none;align=left;verticalAlign=top;spacingLeft=4;spacingRight=4;overflow=hidden;rotatable=0;points=[[0,0.5],[1,0.5]];portConstraint=eastwest;whiteSpace=wrap;html=1;" parent="SkFEskxKewbuhvQvfSpz-20" vertex="1">
          <mxGeometry y="53" width="157" height="27" as="geometry" />
        </mxCell>
        <mxCell id="SkFEskxKewbuhvQvfSpz-22" value="maxSteps : Integer" style="text;strokeColor=none;fillColor=none;align=left;verticalAlign=top;spacingLeft=4;spacingRight=4;overflow=hidden;rotatable=0;points=[[0,0.5],[1,0.5]];portConstraint=eastwest;whiteSpace=wrap;html=1;" parent="SkFEskxKewbuhvQvfSpz-20" vertex="1">
          <mxGeometry y="80" width="157" height="27" as="geometry" />
        </mxCell>
        <mxCell id="SkFEskxKewbuhvQvfSpz-23" value="" style="line;strokeWidth=1;fillColor=none;align=left;verticalAlign=middle;spacingTop=-1;spacingLeft=3;spacingRight=3;rotatable=0;labelPosition=right;points=[];portConstraint=eastwest;strokeColor=inherit;" parent="SkFEskxKewbuhvQvfSpz-20" vertex="1">
          <mxGeometry y="107" width="157" height="9" as="geometry" />
        </mxCell>
        <mxCell id="SkFEskxKewbuhvQvfSpz-24" value="+&amp;nbsp;&lt;span style=&quot;text-align: center;&quot;&gt;DiagonalMovement&lt;/span&gt;(&lt;div&gt;&lt;span style=&quot;white-space: pre;&quot;&gt;&#x9;&lt;/span&gt;toRight : boolean,&amp;nbsp;&lt;/div&gt;&lt;div&gt;&lt;span style=&quot;white-space: pre;&quot;&gt;&#x9;&lt;/span&gt;toUp : boolean,&lt;/div&gt;&lt;div&gt;&lt;span style=&quot;white-space: pre;&quot;&gt;&#x9;&lt;/span&gt;maxSteps :&amp;nbsp;&lt;span style=&quot;background-color: transparent; color: light-dark(rgb(0, 0, 0), rgb(255, 255, 255));&quot;&gt;Integer&lt;/span&gt;&lt;/div&gt;&lt;div&gt;&amp;nbsp; )&lt;/div&gt;" style="text;strokeColor=none;fillColor=none;align=left;verticalAlign=top;spacingLeft=4;spacingRight=4;overflow=hidden;rotatable=0;points=[[0,0.5],[1,0.5]];portConstraint=eastwest;whiteSpace=wrap;html=1;" parent="SkFEskxKewbuhvQvfSpz-20" vertex="1">
          <mxGeometry y="116" width="157" height="84" as="geometry" />
        </mxCell>
        <mxCell id="SkFEskxKewbuhvQvfSpz-28" style="edgeStyle=orthogonalEdgeStyle;rounded=0;orthogonalLoop=1;jettySize=auto;html=1;endArrow=block;endFill=0;endSize=20;" parent="1" source="SkFEskxKewbuhvQvfSpz-20" target="J2jW2XG6HsNSC65ffWOk-1" edge="1">
          <mxGeometry relative="1" as="geometry">
            <Array as="points">
              <mxPoint x="-290" y="500" />
              <mxPoint x="-290" y="500" />
            </Array>
            <mxPoint x="-460" y="521" as="sourcePoint" />
            <mxPoint x="-280" y="330" as="targetPoint" />
          </mxGeometry>
        </mxCell>
        <mxCell id="SkFEskxKewbuhvQvfSpz-29" value="KnightMovement" style="swimlane;fontStyle=1;align=center;verticalAlign=top;childLayout=stackLayout;horizontal=1;startSize=26;horizontalStack=0;resizeParent=1;resizeParentMax=0;resizeLast=0;collapsible=1;marginBottom=0;whiteSpace=wrap;html=1;" parent="1" vertex="1">
          <mxGeometry x="-200" y="550" width="157" height="35" as="geometry" />
        </mxCell>
        <mxCell id="SkFEskxKewbuhvQvfSpz-33" value="" style="line;strokeWidth=1;fillColor=none;align=left;verticalAlign=middle;spacingTop=-1;spacingLeft=3;spacingRight=3;rotatable=0;labelPosition=right;points=[];portConstraint=eastwest;strokeColor=inherit;" parent="SkFEskxKewbuhvQvfSpz-29" vertex="1">
          <mxGeometry y="26" width="157" height="9" as="geometry" />
        </mxCell>
        <mxCell id="SkFEskxKewbuhvQvfSpz-35" style="edgeStyle=orthogonalEdgeStyle;rounded=0;orthogonalLoop=1;jettySize=auto;html=1;endArrow=block;endFill=0;endSize=20;" parent="1" source="SkFEskxKewbuhvQvfSpz-29" target="J2jW2XG6HsNSC65ffWOk-1" edge="1">
          <mxGeometry relative="1" as="geometry">
            <Array as="points">
              <mxPoint x="-121" y="530" />
              <mxPoint x="-290" y="530" />
            </Array>
            <mxPoint x="-280" y="521" as="sourcePoint" />
            <mxPoint x="-280" y="330" as="targetPoint" />
          </mxGeometry>
        </mxCell>
        <mxCell id="SkFEskxKewbuhvQvfSpz-68" style="edgeStyle=orthogonalEdgeStyle;rounded=0;orthogonalLoop=1;jettySize=auto;html=1;endArrow=diamondThin;endFill=1;endSize=20;" parent="1" source="SkFEskxKewbuhvQvfSpz-39" target="SkFEskxKewbuhvQvfSpz-60" edge="1">
          <mxGeometry relative="1" as="geometry" />
        </mxCell>
        <mxCell id="SkFEskxKewbuhvQvfSpz-39" value="Chessboard" style="swimlane;fontStyle=1;align=center;verticalAlign=top;childLayout=stackLayout;horizontal=1;startSize=26;horizontalStack=0;resizeParent=1;resizeParentMax=0;resizeLast=0;collapsible=1;marginBottom=0;whiteSpace=wrap;html=1;" parent="1" vertex="1">
          <mxGeometry x="661" y="90" width="400" height="620" as="geometry" />
        </mxCell>
        <mxCell id="SkFEskxKewbuhvQvfSpz-40" value="- board : DisplayableCell [ ] [ ]" style="text;strokeColor=none;fillColor=none;align=left;verticalAlign=top;spacingLeft=4;spacingRight=4;overflow=hidden;rotatable=0;points=[[0,0.5],[1,0.5]];portConstraint=eastwest;whiteSpace=wrap;html=1;" parent="SkFEskxKewbuhvQvfSpz-39" vertex="1">
          <mxGeometry y="26" width="400" height="26" as="geometry" />
        </mxCell>
        <mxCell id="SkFEskxKewbuhvQvfSpz-70" value="- panelBoard : JPanel" style="text;strokeColor=none;fillColor=none;align=left;verticalAlign=top;spacingLeft=4;spacingRight=4;overflow=hidden;rotatable=0;points=[[0,0.5],[1,0.5]];portConstraint=eastwest;whiteSpace=wrap;html=1;" parent="SkFEskxKewbuhvQvfSpz-39" vertex="1">
          <mxGeometry y="52" width="400" height="26" as="geometry" />
        </mxCell>
        <mxCell id="SkFEskxKewbuhvQvfSpz-49" value="&lt;u&gt;+ CHECK_BYWHITE : int = 1&lt;/u&gt;" style="text;strokeColor=none;fillColor=none;align=left;verticalAlign=top;spacingLeft=4;spacingRight=4;overflow=hidden;rotatable=0;points=[[0,0.5],[1,0.5]];portConstraint=eastwest;whiteSpace=wrap;html=1;" parent="SkFEskxKewbuhvQvfSpz-39" vertex="1">
          <mxGeometry y="78" width="400" height="26" as="geometry" />
        </mxCell>
        <mxCell id="SkFEskxKewbuhvQvfSpz-50" value="&lt;u&gt;+ CHECK_BYBLACK : int = -1&lt;/u&gt;" style="text;strokeColor=none;fillColor=none;align=left;verticalAlign=top;spacingLeft=4;spacingRight=4;overflow=hidden;rotatable=0;points=[[0,0.5],[1,0.5]];portConstraint=eastwest;whiteSpace=wrap;html=1;" parent="SkFEskxKewbuhvQvfSpz-39" vertex="1">
          <mxGeometry y="104" width="400" height="26" as="geometry" />
        </mxCell>
        <mxCell id="SkFEskxKewbuhvQvfSpz-52" value="&lt;u&gt;+ CHECK_NONE : int = 0&lt;/u&gt;" style="text;strokeColor=none;fillColor=none;align=left;verticalAlign=top;spacingLeft=4;spacingRight=4;overflow=hidden;rotatable=0;points=[[0,0.5],[1,0.5]];portConstraint=eastwest;whiteSpace=wrap;html=1;" parent="SkFEskxKewbuhvQvfSpz-39" vertex="1">
          <mxGeometry y="130" width="400" height="26" as="geometry" />
        </mxCell>
        <mxCell id="SkFEskxKewbuhvQvfSpz-41" value="" style="line;strokeWidth=1;fillColor=none;align=left;verticalAlign=middle;spacingTop=-1;spacingLeft=3;spacingRight=3;rotatable=0;labelPosition=right;points=[];portConstraint=eastwest;strokeColor=inherit;" parent="SkFEskxKewbuhvQvfSpz-39" vertex="1">
          <mxGeometry y="156" width="400" height="8" as="geometry" />
        </mxCell>
        <mxCell id="SkFEskxKewbuhvQvfSpz-55" value="+ Chessboard (boardInstance : DisplayableCell [ ] [ ])" style="text;strokeColor=none;fillColor=none;align=left;verticalAlign=top;spacingLeft=4;spacingRight=4;overflow=hidden;rotatable=0;points=[[0,0.5],[1,0.5]];portConstraint=eastwest;whiteSpace=wrap;html=1;" parent="SkFEskxKewbuhvQvfSpz-39" vertex="1">
          <mxGeometry y="164" width="400" height="26" as="geometry" />
        </mxCell>
        <mxCell id="SkFEskxKewbuhvQvfSpz-54" value="+ move (&lt;div&gt;&lt;span style=&quot;white-space: pre;&quot;&gt;&#x9;&lt;/span&gt;from : Position,&lt;/div&gt;&lt;div&gt;&lt;span style=&quot;white-space: pre;&quot;&gt;&#x9;&lt;/span&gt;to : Position&lt;br&gt;&lt;/div&gt;&lt;div&gt;&amp;nbsp; ) : int&lt;/div&gt;" style="text;strokeColor=none;fillColor=none;align=left;verticalAlign=top;spacingLeft=4;spacingRight=4;overflow=hidden;rotatable=0;points=[[0,0.5],[1,0.5]];portConstraint=eastwest;whiteSpace=wrap;html=1;" parent="SkFEskxKewbuhvQvfSpz-39" vertex="1">
          <mxGeometry y="190" width="400" height="72" as="geometry" />
        </mxCell>
        <mxCell id="06TTXpgL2270FxeW5wfN-26" value="+ movePiece (&lt;div&gt;&lt;span style=&quot;white-space: pre;&quot;&gt;&#x9;&lt;/span&gt;piece&amp;nbsp;: Piece,&lt;/div&gt;&lt;div&gt;&lt;span style=&quot;white-space: pre;&quot;&gt;&#x9;&lt;/span&gt;to : Position&lt;br&gt;&lt;/div&gt;&lt;div&gt;&amp;nbsp; ) : void&lt;/div&gt;" style="text;strokeColor=none;fillColor=none;align=left;verticalAlign=top;spacingLeft=4;spacingRight=4;overflow=hidden;rotatable=0;points=[[0,0.5],[1,0.5]];portConstraint=eastwest;whiteSpace=wrap;html=1;" parent="SkFEskxKewbuhvQvfSpz-39" vertex="1">
          <mxGeometry y="262" width="400" height="72" as="geometry" />
        </mxCell>
        <mxCell id="SkFEskxKewbuhvQvfSpz-78" value="+ getPiece(position : Position) : DisplayableCell" style="text;strokeColor=none;fillColor=none;align=left;verticalAlign=top;spacingLeft=4;spacingRight=4;overflow=hidden;rotatable=0;points=[[0,0.5],[1,0.5]];portConstraint=eastwest;whiteSpace=wrap;html=1;" parent="SkFEskxKewbuhvQvfSpz-39" vertex="1">
          <mxGeometry y="334" width="400" height="26" as="geometry" />
        </mxCell>
        <mxCell id="SkFEskxKewbuhvQvfSpz-71" value="- initPanel () : void" style="text;strokeColor=none;fillColor=none;align=left;verticalAlign=top;spacingLeft=4;spacingRight=4;overflow=hidden;rotatable=0;points=[[0,0.5],[1,0.5]];portConstraint=eastwest;whiteSpace=wrap;html=1;" parent="SkFEskxKewbuhvQvfSpz-39" vertex="1">
          <mxGeometry y="360" width="400" height="26" as="geometry" />
        </mxCell>
        <mxCell id="SkFEskxKewbuhvQvfSpz-72" value="+ changePanel (row : int, column : int, panel : JPanel&amp;nbsp;) : void" style="text;strokeColor=none;fillColor=none;align=left;verticalAlign=top;spacingLeft=4;spacingRight=4;overflow=hidden;rotatable=0;points=[[0,0.5],[1,0.5]];portConstraint=eastwest;whiteSpace=wrap;html=1;" parent="SkFEskxKewbuhvQvfSpz-39" vertex="1">
          <mxGeometry y="386" width="400" height="26" as="geometry" />
        </mxCell>
        <mxCell id="SkFEskxKewbuhvQvfSpz-46" value="+ checkIfMove(from : Position, to : Position) : int" style="text;strokeColor=none;fillColor=none;align=left;verticalAlign=top;spacingLeft=4;spacingRight=4;overflow=hidden;rotatable=0;points=[[0,0.5],[1,0.5]];portConstraint=eastwest;whiteSpace=wrap;html=1;" parent="SkFEskxKewbuhvQvfSpz-39" vertex="1">
          <mxGeometry y="412" width="400" height="26" as="geometry" />
        </mxCell>
        <mxCell id="SkFEskxKewbuhvQvfSpz-56" value="+ checkIf(boardInstance : DisplayableCell [ ] [ ]) : int" style="text;strokeColor=none;fillColor=none;align=left;verticalAlign=top;spacingLeft=4;spacingRight=4;overflow=hidden;rotatable=0;points=[[0,0.5],[1,0.5]];portConstraint=eastwest;whiteSpace=wrap;html=1;" parent="SkFEskxKewbuhvQvfSpz-39" vertex="1">
          <mxGeometry y="438" width="400" height="26" as="geometry" />
        </mxCell>
        <mxCell id="SkFEskxKewbuhvQvfSpz-87" value="+ getBoardInstance() : DisplayableCell [ ] [ ]" style="text;strokeColor=none;fillColor=none;align=left;verticalAlign=top;spacingLeft=4;spacingRight=4;overflow=hidden;rotatable=0;points=[[0,0.5],[1,0.5]];portConstraint=eastwest;whiteSpace=wrap;html=1;" parent="SkFEskxKewbuhvQvfSpz-39" vertex="1">
          <mxGeometry y="464" width="400" height="26" as="geometry" />
        </mxCell>
        <mxCell id="SkFEskxKewbuhvQvfSpz-45" value="+ anyCheck() : int" style="text;strokeColor=none;fillColor=none;align=left;verticalAlign=top;spacingLeft=4;spacingRight=4;overflow=hidden;rotatable=0;points=[[0,0.5],[1,0.5]];portConstraint=eastwest;whiteSpace=wrap;html=1;" parent="SkFEskxKewbuhvQvfSpz-39" vertex="1">
          <mxGeometry y="490" width="400" height="26" as="geometry" />
        </mxCell>
        <mxCell id="SkFEskxKewbuhvQvfSpz-88" value="+ getBoardInstance() : DisplayableCell [ ] [ ]" style="text;strokeColor=none;fillColor=none;align=left;verticalAlign=top;spacingLeft=4;spacingRight=4;overflow=hidden;rotatable=0;points=[[0,0.5],[1,0.5]];portConstraint=eastwest;whiteSpace=wrap;html=1;" parent="SkFEskxKewbuhvQvfSpz-39" vertex="1">
          <mxGeometry y="516" width="400" height="26" as="geometry" />
        </mxCell>
        <mxCell id="SkFEskxKewbuhvQvfSpz-65" value="+ getPanelBoard() : JPanel" style="text;strokeColor=none;fillColor=none;align=left;verticalAlign=top;spacingLeft=4;spacingRight=4;overflow=hidden;rotatable=0;points=[[0,0.5],[1,0.5]];portConstraint=eastwest;whiteSpace=wrap;html=1;" parent="SkFEskxKewbuhvQvfSpz-39" vertex="1">
          <mxGeometry y="542" width="400" height="26" as="geometry" />
        </mxCell>
        <mxCell id="SkFEskxKewbuhvQvfSpz-86" value="+ isItInside(position : Position) : boolean" style="text;strokeColor=none;fillColor=none;align=left;verticalAlign=top;spacingLeft=4;spacingRight=4;overflow=hidden;rotatable=0;points=[[0,0.5],[1,0.5]];portConstraint=eastwest;whiteSpace=wrap;html=1;" parent="SkFEskxKewbuhvQvfSpz-39" vertex="1">
          <mxGeometry y="568" width="400" height="26" as="geometry" />
        </mxCell>
        <mxCell id="VuiYVt0eshxoId6qfpAP-10" value="&lt;u&gt;+ isItInside(position : Position, board : DisplayableCell[ ] [ ]) : boolean&lt;/u&gt;" style="text;strokeColor=none;fillColor=none;align=left;verticalAlign=top;spacingLeft=4;spacingRight=4;overflow=hidden;rotatable=0;points=[[0,0.5],[1,0.5]];portConstraint=eastwest;whiteSpace=wrap;html=1;" vertex="1" parent="SkFEskxKewbuhvQvfSpz-39">
          <mxGeometry y="594" width="400" height="26" as="geometry" />
        </mxCell>
        <mxCell id="SkFEskxKewbuhvQvfSpz-44" style="edgeStyle=orthogonalEdgeStyle;rounded=0;orthogonalLoop=1;jettySize=auto;html=1;endArrow=open;endFill=0;endSize=20;dashed=1;" parent="1" source="Ocv0W2CAT3Qs6bE-MKSK-1" target="SkFEskxKewbuhvQvfSpz-39" edge="1">
          <mxGeometry relative="1" as="geometry">
            <mxPoint x="-280" y="154" as="sourcePoint" />
            <mxPoint x="780" y="190" as="targetPoint" />
            <Array as="points">
              <mxPoint x="770" y="410" />
            </Array>
          </mxGeometry>
        </mxCell>
        <mxCell id="SkFEskxKewbuhvQvfSpz-57" value="&lt;span style=&quot;font-size: 10px;&quot;&gt;Esta clase se encarga de tener el conjunto de piezas, devolver el panel que se mostrará en la interfaz gráfica, y comprobar jaques, además de si habrá un jaque al hacer un determinado movimiento.&lt;/span&gt;" style="shape=callout;whiteSpace=wrap;html=1;perimeter=calloutPerimeter;position2=0.43;base=29;fillColor=#dae8fc;strokeColor=#6c8ebf;align=center;size=36;position=0.67;" parent="1" vertex="1">
          <mxGeometry x="961" y="-20" width="280" height="110" as="geometry" />
        </mxCell>
        <mxCell id="SkFEskxKewbuhvQvfSpz-58" value="&lt;blockquote style=&quot;margin: 0 0 0 40px; border: none; padding: 0px;&quot;&gt;El usuario manda al servidor un movimiento, digamos d2 -&amp;gt; d3, y le envía este intento a la clase &quot;&lt;b&gt;ChessManager&lt;/b&gt;&quot;.&lt;/blockquote&gt;&lt;blockquote style=&quot;margin: 0 0 0 40px; border: none; padding: 0px;&quot;&gt;&lt;br&gt;&lt;/blockquote&gt;&lt;blockquote style=&quot;margin: 0 0 0 40px; border: none; padding: 0px;&quot;&gt;&lt;blockquote style=&quot;margin: 0px 0px 0px 40px; border: none; padding: 0px;&quot;&gt;&lt;b&gt;ChessManager:&lt;/b&gt;&lt;/blockquote&gt;reenvia este intento a la clase &lt;b&gt;ChessBoard&lt;/b&gt; junto al turno actual&lt;/blockquote&gt;&lt;blockquote style=&quot;margin: 0 0 0 40px; border: none; padding: 0px;&quot;&gt;&lt;br&gt;&lt;/blockquote&gt;&lt;blockquote style=&quot;margin: 0 0 0 40px; border: none; padding: 0px;&quot;&gt;&lt;blockquote style=&quot;margin: 0 0 0 40px; border: none; padding: 0px;&quot;&gt;&lt;b&gt;Chessboard:&lt;/b&gt;&lt;/blockquote&gt;&lt;/blockquote&gt;&lt;blockquote style=&quot;margin: 0 0 0 40px; border: none; padding: 0px;&quot;&gt;comprueba los casos generales:&lt;/blockquote&gt;&lt;blockquote style=&quot;margin: 0 0 0 40px; border: none; padding: 0px;&quot;&gt;&lt;blockquote style=&quot;margin: 0 0 0 40px; border: none; padding: 0px;&quot;&gt;- Está intentando mover una pieza de su color&lt;/blockquote&gt;&lt;/blockquote&gt;&lt;blockquote style=&quot;margin: 0 0 0 40px; border: none; padding: 0px;&quot;&gt;&lt;blockquote style=&quot;margin: 0 0 0 40px; border: none; padding: 0px;&quot;&gt;- Movimiento dentro del tablero&lt;/blockquote&gt;&lt;blockquote style=&quot;margin: 0 0 0 40px; border: none; padding: 0px;&quot;&gt;- Los valores no son null&#39;s&lt;/blockquote&gt;&lt;blockquote style=&quot;margin: 0 0 0 40px; border: none; padding: 0px;&quot;&gt;- No se intenta mover de una posición a la misma&lt;/blockquote&gt;&lt;blockquote style=&quot;margin: 0 0 0 40px; border: none; padding: 0px;&quot;&gt;- No se intenta comer una pieza propia&lt;/blockquote&gt;&lt;br&gt;&lt;/blockquote&gt;&lt;blockquote style=&quot;margin: 0 0 0 40px; border: none; padding: 0px;&quot;&gt;Después envía la petición de movimiento a la clase &lt;b&gt;Piece &lt;/b&gt;que se encuentra en la posición d2&lt;/blockquote&gt;&lt;blockquote style=&quot;margin: 0 0 0 40px; border: none; padding: 0px;&quot;&gt;&lt;br&gt;&lt;/blockquote&gt;&lt;blockquote style=&quot;margin: 0 0 0 40px; border: none; padding: 0px;&quot;&gt;&lt;blockquote style=&quot;margin: 0 0 0 40px; border: none; padding: 0px;&quot;&gt;&lt;b&gt;Piece:&lt;/b&gt;&lt;/blockquote&gt;&lt;/blockquote&gt;&lt;blockquote style=&quot;margin: 0 0 0 40px; border: none; padding: 0px;&quot;&gt;comprueba todos sus posibles movimientos para ver si coincide con alguno. Recorre la lista &quot;this.movements&quot; y usa el método de la interfaz &lt;b&gt;Movement&lt;/b&gt;&amp;nbsp;que en este caso (peón) tiene que tener tres posibles movimientos, dos diagonales, y uno vertical.&lt;/blockquote&gt;&lt;blockquote style=&quot;margin: 0 0 0 40px; border: none; padding: 0px;&quot;&gt;&lt;b&gt;&lt;br&gt;&lt;/b&gt;&lt;/blockquote&gt;&lt;blockquote style=&quot;margin: 0 0 0 40px; border: none; padding: 0px;&quot;&gt;&lt;blockquote style=&quot;margin: 0 0 0 40px; border: none; padding: 0px;&quot;&gt;&lt;b&gt;VerticalMovement implements Movement:&lt;/b&gt;&lt;/blockquote&gt;&lt;/blockquote&gt;&lt;blockquote style=&quot;margin: 0 0 0 40px; border: none; padding: 0px;&quot;&gt;usa el método canIMove(...) que implementa de la clase Movement, en este caso, al ser un peón tendrá las siguientes variables:&lt;/blockquote&gt;&lt;blockquote style=&quot;margin: 0 0 0 40px; border: none; padding: 0px;&quot;&gt;&lt;blockquote style=&quot;margin: 0 0 0 40px; border: none; padding: 0px;&quot;&gt;- instantMove = false&lt;/blockquote&gt;&lt;blockquote style=&quot;margin: 0 0 0 40px; border: none; padding: 0px;&quot;&gt;- haveToNotEat = true&lt;/blockquote&gt;&lt;blockquote style=&quot;margin: 0 0 0 40px; border: none; padding: 0px;&quot;&gt;- haveToEat = false&lt;/blockquote&gt;&lt;/blockquote&gt;&lt;blockquote style=&quot;margin: 0 0 0 40px; border: none; padding: 0px;&quot;&gt;&lt;blockquote style=&quot;margin: 0 0 0 40px; border: none; padding: 0px;&quot;&gt;- maxSteps = 2,&lt;/blockquote&gt;&lt;/blockquote&gt;&lt;blockquote style=&quot;margin: 0 0 0 40px; border: none; padding: 0px;&quot;&gt;por lo que comprobará:&lt;/blockquote&gt;&lt;blockquote style=&quot;margin: 0 0 0 40px; border: none; padding: 0px;&quot;&gt;&lt;blockquote style=&quot;margin: 0 0 0 40px; border: none; padding: 0px;&quot;&gt;- Si el movimiento está obstaculizado por otra pieza&lt;/blockquote&gt;&lt;blockquote style=&quot;margin: 0 0 0 40px; border: none; padding: 0px;&quot;&gt;- Si no hay ninguna pieza en la posición destino, ya que este movimiento no puede comer (haveToNotEat)&lt;/blockquote&gt;&lt;blockquote style=&quot;margin: 0 0 0 40px; border: none; padding: 0px;&quot;&gt;- Si el movimiento no necesita más de dos pasos&lt;/blockquote&gt;Después se devolverá un valor entero indicando si se puede o no mover.&amp;nbsp;&lt;span style=&quot;background-color: transparent; color: light-dark(rgb(0, 0, 0), rgb(255, 255, 255));&quot;&gt;&amp;nbsp;&lt;/span&gt;&lt;span style=&quot;background-color: transparent; color: light-dark(rgb(0, 0, 0), rgb(255, 255, 255));&quot;&gt;0 (ok), otro numero indica un error.&lt;/span&gt;&lt;/blockquote&gt;&lt;blockquote style=&quot;margin: 0 0 0 40px; border: none; padding: 0px;&quot;&gt;&lt;br&gt;&lt;/blockquote&gt;&lt;blockquote style=&quot;margin: 0 0 0 40px; border: none; padding: 0px;&quot;&gt;&lt;blockquote style=&quot;margin: 0 0 0 40px; border: none; padding: 0px;&quot;&gt;&lt;b&gt;Piece:&lt;/b&gt;&lt;/blockquote&gt;devuelve el valor true que le habrá devuelto uno de los Movement de la lista &quot;movements&quot;.&lt;/blockquote&gt;&lt;blockquote style=&quot;margin: 0 0 0 40px; border: none; padding: 0px;&quot;&gt;&lt;br&gt;&lt;/blockquote&gt;&lt;blockquote style=&quot;margin: 0 0 0 40px; border: none; padding: 0px;&quot;&gt;&lt;blockquote style=&quot;margin: 0 0 0 40px; border: none; padding: 0px;&quot;&gt;&lt;b&gt;Chessboard:&lt;/b&gt;&lt;/blockquote&gt;Como Piece le devuelve 0 (ok), se mueve la pieza, devuelve true y se actualizan las celdas modificadas.&lt;/blockquote&gt;&lt;blockquote style=&quot;margin: 0 0 0 40px; border: none; padding: 0px;&quot;&gt;&lt;br&gt;&lt;/blockquote&gt;&lt;blockquote style=&quot;margin: 0 0 0 40px; border: none; padding: 0px;&quot;&gt;&lt;blockquote style=&quot;margin: 0 0 0 40px; border: none; padding: 0px;&quot;&gt;&lt;b&gt;ChessManager&lt;/b&gt;:&lt;/blockquote&gt;Como Chessboard devuelve&amp;nbsp;&amp;nbsp;0 (ok), cambia el turno y actualiza el tablero.&lt;/blockquote&gt;" style="shape=note;whiteSpace=wrap;html=1;backgroundOutline=1;darkOpacity=0.05;align=left;" parent="1" vertex="1">
          <mxGeometry x="-1240" y="-40" width="400" height="840" as="geometry" />
        </mxCell>
        <mxCell id="SkFEskxKewbuhvQvfSpz-60" value="ChessManager" style="swimlane;fontStyle=1;align=center;verticalAlign=top;childLayout=stackLayout;horizontal=1;startSize=26;horizontalStack=0;resizeParent=1;resizeParentMax=0;resizeLast=0;collapsible=1;marginBottom=0;whiteSpace=wrap;html=1;" parent="1" vertex="1">
          <mxGeometry x="1180" y="308" width="160" height="158" as="geometry" />
        </mxCell>
        <mxCell id="SkFEskxKewbuhvQvfSpz-61" value="- chessboard : Chessboard" style="text;strokeColor=none;fillColor=none;align=left;verticalAlign=top;spacingLeft=4;spacingRight=4;overflow=hidden;rotatable=0;points=[[0,0.5],[1,0.5]];portConstraint=eastwest;whiteSpace=wrap;html=1;" parent="SkFEskxKewbuhvQvfSpz-60" vertex="1">
          <mxGeometry y="26" width="160" height="26" as="geometry" />
        </mxCell>
        <mxCell id="SkFEskxKewbuhvQvfSpz-66" value="- whiteTurn : boolean" style="text;strokeColor=none;fillColor=none;align=left;verticalAlign=top;spacingLeft=4;spacingRight=4;overflow=hidden;rotatable=0;points=[[0,0.5],[1,0.5]];portConstraint=eastwest;whiteSpace=wrap;html=1;" parent="SkFEskxKewbuhvQvfSpz-60" vertex="1">
          <mxGeometry y="52" width="160" height="26" as="geometry" />
        </mxCell>
        <mxCell id="SkFEskxKewbuhvQvfSpz-62" value="" style="line;strokeWidth=1;fillColor=none;align=left;verticalAlign=middle;spacingTop=-1;spacingLeft=3;spacingRight=3;rotatable=0;labelPosition=right;points=[];portConstraint=eastwest;strokeColor=inherit;" parent="SkFEskxKewbuhvQvfSpz-60" vertex="1">
          <mxGeometry y="78" width="160" height="8" as="geometry" />
        </mxCell>
        <mxCell id="SkFEskxKewbuhvQvfSpz-67" value="+ move (&lt;div&gt;&lt;span style=&quot;white-space: pre;&quot;&gt;&#x9;&lt;/span&gt;from : Position,&lt;/div&gt;&lt;div&gt;&lt;span style=&quot;white-space: pre;&quot;&gt;&#x9;&lt;/span&gt;to : Position&lt;br&gt;&lt;/div&gt;&lt;div&gt;&amp;nbsp; ) : int&lt;/div&gt;" style="text;strokeColor=none;fillColor=none;align=left;verticalAlign=top;spacingLeft=4;spacingRight=4;overflow=hidden;rotatable=0;points=[[0,0.5],[1,0.5]];portConstraint=eastwest;whiteSpace=wrap;html=1;" parent="SkFEskxKewbuhvQvfSpz-60" vertex="1">
          <mxGeometry y="86" width="160" height="72" as="geometry" />
        </mxCell>
        <mxCell id="SkFEskxKewbuhvQvfSpz-85" style="edgeStyle=orthogonalEdgeStyle;rounded=0;orthogonalLoop=1;jettySize=auto;html=1;endArrow=diamondThin;endFill=1;endSize=20;" parent="1" source="Ocv0W2CAT3Qs6bE-MKSK-6" target="SkFEskxKewbuhvQvfSpz-39" edge="1">
          <mxGeometry relative="1" as="geometry">
            <mxPoint x="450" as="sourcePoint" />
            <mxPoint x="719" y="102" as="targetPoint" />
            <Array as="points">
              <mxPoint x="630" y="222" />
              <mxPoint x="630" y="222" />
            </Array>
          </mxGeometry>
        </mxCell>
        <mxCell id="06TTXpgL2270FxeW5wfN-1" value="Pawn" style="swimlane;fontStyle=1;align=center;verticalAlign=top;childLayout=stackLayout;horizontal=1;startSize=26;horizontalStack=0;resizeParent=1;resizeParentMax=0;resizeLast=0;collapsible=1;marginBottom=0;whiteSpace=wrap;html=1;" parent="1" vertex="1">
          <mxGeometry x="-161" y="910" width="160" height="34" as="geometry" />
        </mxCell>
        <mxCell id="06TTXpgL2270FxeW5wfN-3" value="" style="line;strokeWidth=1;fillColor=none;align=left;verticalAlign=middle;spacingTop=-1;spacingLeft=3;spacingRight=3;rotatable=0;labelPosition=right;points=[];portConstraint=eastwest;strokeColor=inherit;" parent="06TTXpgL2270FxeW5wfN-1" vertex="1">
          <mxGeometry y="26" width="160" height="8" as="geometry" />
        </mxCell>
        <mxCell id="06TTXpgL2270FxeW5wfN-5" value="Rook" style="swimlane;fontStyle=1;align=center;verticalAlign=top;childLayout=stackLayout;horizontal=1;startSize=26;horizontalStack=0;resizeParent=1;resizeParentMax=0;resizeLast=0;collapsible=1;marginBottom=0;whiteSpace=wrap;html=1;" parent="1" vertex="1">
          <mxGeometry x="520" y="910" width="160" height="34" as="geometry" />
        </mxCell>
        <mxCell id="06TTXpgL2270FxeW5wfN-6" value="" style="line;strokeWidth=1;fillColor=none;align=left;verticalAlign=middle;spacingTop=-1;spacingLeft=3;spacingRight=3;rotatable=0;labelPosition=right;points=[];portConstraint=eastwest;strokeColor=inherit;" parent="06TTXpgL2270FxeW5wfN-5" vertex="1">
          <mxGeometry y="26" width="160" height="8" as="geometry" />
        </mxCell>
        <mxCell id="06TTXpgL2270FxeW5wfN-7" value="Bishop" style="swimlane;fontStyle=1;align=center;verticalAlign=top;childLayout=stackLayout;horizontal=1;startSize=26;horizontalStack=0;resizeParent=1;resizeParentMax=0;resizeLast=0;collapsible=1;marginBottom=0;whiteSpace=wrap;html=1;" parent="1" vertex="1">
          <mxGeometry x="179" y="910" width="160" height="34" as="geometry" />
        </mxCell>
        <mxCell id="06TTXpgL2270FxeW5wfN-8" value="" style="line;strokeWidth=1;fillColor=none;align=left;verticalAlign=middle;spacingTop=-1;spacingLeft=3;spacingRight=3;rotatable=0;labelPosition=right;points=[];portConstraint=eastwest;strokeColor=inherit;" parent="06TTXpgL2270FxeW5wfN-7" vertex="1">
          <mxGeometry y="26" width="160" height="8" as="geometry" />
        </mxCell>
        <mxCell id="06TTXpgL2270FxeW5wfN-9" value="Knight" style="swimlane;fontStyle=1;align=center;verticalAlign=top;childLayout=stackLayout;horizontal=1;startSize=26;horizontalStack=0;resizeParent=1;resizeParentMax=0;resizeLast=0;collapsible=1;marginBottom=0;whiteSpace=wrap;html=1;" parent="1" vertex="1">
          <mxGeometry x="349" y="910" width="160" height="34" as="geometry" />
        </mxCell>
        <mxCell id="06TTXpgL2270FxeW5wfN-10" value="" style="line;strokeWidth=1;fillColor=none;align=left;verticalAlign=middle;spacingTop=-1;spacingLeft=3;spacingRight=3;rotatable=0;labelPosition=right;points=[];portConstraint=eastwest;strokeColor=inherit;" parent="06TTXpgL2270FxeW5wfN-9" vertex="1">
          <mxGeometry y="26" width="160" height="8" as="geometry" />
        </mxCell>
        <mxCell id="06TTXpgL2270FxeW5wfN-11" value="King" style="swimlane;fontStyle=1;align=center;verticalAlign=top;childLayout=stackLayout;horizontal=1;startSize=26;horizontalStack=0;resizeParent=1;resizeParentMax=0;resizeLast=0;collapsible=1;marginBottom=0;whiteSpace=wrap;html=1;" parent="1" vertex="1">
          <mxGeometry x="10" y="910" width="160" height="34" as="geometry" />
        </mxCell>
        <mxCell id="06TTXpgL2270FxeW5wfN-12" value="" style="line;strokeWidth=1;fillColor=none;align=left;verticalAlign=middle;spacingTop=-1;spacingLeft=3;spacingRight=3;rotatable=0;labelPosition=right;points=[];portConstraint=eastwest;strokeColor=inherit;" parent="06TTXpgL2270FxeW5wfN-11" vertex="1">
          <mxGeometry y="26" width="160" height="8" as="geometry" />
        </mxCell>
        <mxCell id="06TTXpgL2270FxeW5wfN-13" value="Queen" style="swimlane;fontStyle=1;align=center;verticalAlign=top;childLayout=stackLayout;horizontal=1;startSize=26;horizontalStack=0;resizeParent=1;resizeParentMax=0;resizeLast=0;collapsible=1;marginBottom=0;whiteSpace=wrap;html=1;" parent="1" vertex="1">
          <mxGeometry x="689" y="910" width="160" height="34" as="geometry" />
        </mxCell>
        <mxCell id="06TTXpgL2270FxeW5wfN-14" value="" style="line;strokeWidth=1;fillColor=none;align=left;verticalAlign=middle;spacingTop=-1;spacingLeft=3;spacingRight=3;rotatable=0;labelPosition=right;points=[];portConstraint=eastwest;strokeColor=inherit;" parent="06TTXpgL2270FxeW5wfN-13" vertex="1">
          <mxGeometry y="26" width="160" height="8" as="geometry" />
        </mxCell>
        <mxCell id="06TTXpgL2270FxeW5wfN-15" style="edgeStyle=orthogonalEdgeStyle;rounded=0;orthogonalLoop=1;jettySize=auto;html=1;endArrow=block;endFill=0;endSize=20;" parent="1" source="06TTXpgL2270FxeW5wfN-1" target="Ocv0W2CAT3Qs6bE-MKSK-1" edge="1">
          <mxGeometry relative="1" as="geometry">
            <Array as="points">
              <mxPoint x="-40" y="820" />
              <mxPoint x="340" y="820" />
            </Array>
            <mxPoint x="119" y="702" as="sourcePoint" />
            <mxPoint x="-50" y="611" as="targetPoint" />
          </mxGeometry>
        </mxCell>
        <mxCell id="06TTXpgL2270FxeW5wfN-16" style="edgeStyle=orthogonalEdgeStyle;rounded=0;orthogonalLoop=1;jettySize=auto;html=1;endArrow=block;endFill=0;endSize=20;" parent="1" source="06TTXpgL2270FxeW5wfN-5" target="Ocv0W2CAT3Qs6bE-MKSK-1" edge="1">
          <mxGeometry relative="1" as="geometry">
            <Array as="points">
              <mxPoint x="600" y="830" />
              <mxPoint x="340" y="830" />
            </Array>
            <mxPoint x="-70" y="820" as="sourcePoint" />
            <mxPoint x="320" y="702" as="targetPoint" />
          </mxGeometry>
        </mxCell>
        <mxCell id="06TTXpgL2270FxeW5wfN-17" style="edgeStyle=orthogonalEdgeStyle;rounded=0;orthogonalLoop=1;jettySize=auto;html=1;endArrow=block;endFill=0;endSize=20;" parent="1" target="Ocv0W2CAT3Qs6bE-MKSK-1" edge="1" source="06TTXpgL2270FxeW5wfN-7">
          <mxGeometry relative="1" as="geometry">
            <Array as="points">
              <mxPoint x="259" y="840" />
              <mxPoint x="340" y="840" />
            </Array>
            <mxPoint x="259" y="810" as="sourcePoint" />
            <mxPoint x="309" y="692" as="targetPoint" />
          </mxGeometry>
        </mxCell>
        <mxCell id="06TTXpgL2270FxeW5wfN-18" style="edgeStyle=orthogonalEdgeStyle;rounded=0;orthogonalLoop=1;jettySize=auto;html=1;endArrow=block;endFill=0;endSize=20;" parent="1" source="06TTXpgL2270FxeW5wfN-11" target="Ocv0W2CAT3Qs6bE-MKSK-1" edge="1">
          <mxGeometry relative="1" as="geometry">
            <Array as="points">
              <mxPoint x="130" y="830" />
              <mxPoint x="340" y="830" />
            </Array>
            <mxPoint x="-50" y="840" as="sourcePoint" />
            <mxPoint x="340" y="722" as="targetPoint" />
          </mxGeometry>
        </mxCell>
        <mxCell id="06TTXpgL2270FxeW5wfN-19" style="edgeStyle=orthogonalEdgeStyle;rounded=0;orthogonalLoop=1;jettySize=auto;html=1;endArrow=block;endFill=0;endSize=20;" parent="1" source="06TTXpgL2270FxeW5wfN-9" target="Ocv0W2CAT3Qs6bE-MKSK-1" edge="1">
          <mxGeometry relative="1" as="geometry">
            <Array as="points">
              <mxPoint x="430" y="840" />
              <mxPoint x="340" y="840" />
            </Array>
            <mxPoint x="430" y="800" as="sourcePoint" />
            <mxPoint x="320" y="702" as="targetPoint" />
          </mxGeometry>
        </mxCell>
        <mxCell id="06TTXpgL2270FxeW5wfN-20" style="edgeStyle=orthogonalEdgeStyle;rounded=0;orthogonalLoop=1;jettySize=auto;html=1;endArrow=block;endFill=0;endSize=20;" parent="1" source="06TTXpgL2270FxeW5wfN-13" target="Ocv0W2CAT3Qs6bE-MKSK-1" edge="1">
          <mxGeometry relative="1" as="geometry">
            <Array as="points">
              <mxPoint x="770" y="820" />
              <mxPoint x="340" y="820" />
            </Array>
            <mxPoint x="610" y="820" as="sourcePoint" />
            <mxPoint x="320" y="702" as="targetPoint" />
          </mxGeometry>
        </mxCell>
        <mxCell id="AER8yh7QAjx86mQW5SoI-2" value="MathUtils" style="swimlane;fontStyle=1;align=center;verticalAlign=top;childLayout=stackLayout;horizontal=1;startSize=26;horizontalStack=0;resizeParent=1;resizeParentMax=0;resizeLast=0;collapsible=1;marginBottom=0;whiteSpace=wrap;html=1;" parent="1" vertex="1">
          <mxGeometry x="-700" y="1020" width="210" height="60" as="geometry" />
        </mxCell>
        <mxCell id="AER8yh7QAjx86mQW5SoI-4" value="" style="line;strokeWidth=1;fillColor=none;align=left;verticalAlign=middle;spacingTop=-1;spacingLeft=3;spacingRight=3;rotatable=0;labelPosition=right;points=[];portConstraint=eastwest;strokeColor=inherit;" parent="AER8yh7QAjx86mQW5SoI-2" vertex="1">
          <mxGeometry y="26" width="210" height="8" as="geometry" />
        </mxCell>
        <mxCell id="AER8yh7QAjx86mQW5SoI-5" value="&lt;u&gt;+ distance(n1 : int, n2: int) : int&lt;/u&gt;" style="text;strokeColor=none;fillColor=none;align=left;verticalAlign=top;spacingLeft=4;spacingRight=4;overflow=hidden;rotatable=0;points=[[0,0.5],[1,0.5]];portConstraint=eastwest;whiteSpace=wrap;html=1;" parent="AER8yh7QAjx86mQW5SoI-2" vertex="1">
          <mxGeometry y="34" width="210" height="26" as="geometry" />
        </mxCell>
        <mxCell id="AER8yh7QAjx86mQW5SoI-6" value="Code" style="swimlane;fontStyle=1;align=center;verticalAlign=top;childLayout=stackLayout;horizontal=1;startSize=26;horizontalStack=0;resizeParent=1;resizeParentMax=0;resizeLast=0;collapsible=1;marginBottom=0;whiteSpace=wrap;html=1;" parent="1" vertex="1">
          <mxGeometry x="-470" y="1020" width="350" height="298" as="geometry" />
        </mxCell>
        <mxCell id="AER8yh7QAjx86mQW5SoI-16" value="&lt;blockquote style=&quot;margin: 0 0 0 40px; border: none; padding: 0px;&quot;&gt;&lt;span style=&quot;background-color: transparent; color: light-dark(rgb(0, 0, 0), rgb(255, 255, 255));&quot;&gt;Tiene los codigos de error:&lt;br&gt;&lt;/span&gt;&lt;/blockquote&gt;&lt;blockquote style=&quot;margin: 0 0 0 40px; border: none; padding: 0px;&quot;&gt;&lt;blockquote style=&quot;margin: 0 0 0 40px; border: none; padding: 0px;&quot;&gt;&lt;span style=&quot;background-color: transparent; color: light-dark(rgb(0, 0, 0), rgb(255, 255, 255));&quot;&gt;OK = 0&lt;/span&gt;&lt;/blockquote&gt;&lt;blockquote style=&quot;margin: 0 0 0 40px; border: none; padding: 0px;&quot;&gt;&lt;span style=&quot;background-color: transparent; color: light-dark(rgb(0, 0, 0), rgb(255, 255, 255));&quot;&gt;UNKNOWN_ERROR = 1&lt;/span&gt;&lt;/blockquote&gt;&lt;blockquote style=&quot;margin: 0 0 0 40px; border: none; padding: 0px;&quot;&gt;&lt;span style=&quot;background-color: transparent; color: light-dark(rgb(0, 0, 0), rgb(255, 255, 255));&quot;&gt;MOVING_INCORRECT_PIECE = 2&lt;/span&gt;&lt;/blockquote&gt;&lt;blockquote style=&quot;margin: 0 0 0 40px; border: none; padding: 0px;&quot;&gt;&lt;div&gt;&lt;div&gt;&lt;div&gt;OUT_OF_BOARD = 3&lt;/div&gt;&lt;/div&gt;&lt;/div&gt;&lt;/blockquote&gt;&lt;blockquote style=&quot;margin: 0 0 0 40px; border: none; padding: 0px;&quot;&gt;&lt;div&gt;&lt;span style=&quot;background-color: transparent; color: light-dark(rgb(0, 0, 0), rgb(255, 255, 255));&quot;&gt;NULL_VALUE = 4&lt;/span&gt;&lt;/div&gt;&lt;/blockquote&gt;&lt;blockquote style=&quot;margin: 0 0 0 40px; border: none; padding: 0px;&quot;&gt;&lt;div&gt;&lt;span style=&quot;background-color: transparent; color: light-dark(rgb(0, 0, 0), rgb(255, 255, 255));&quot;&gt;NOT_MOVING = 5&lt;/span&gt;&lt;/div&gt;&lt;/blockquote&gt;&lt;blockquote style=&quot;margin: 0 0 0 40px; border: none; padding: 0px;&quot;&gt;&lt;div&gt;&lt;span style=&quot;background-color: transparent; color: light-dark(rgb(0, 0, 0), rgb(255, 255, 255));&quot;&gt;EATING_MATES = 6&lt;/span&gt;&lt;/div&gt;&lt;/blockquote&gt;&lt;blockquote style=&quot;margin: 0 0 0 40px; border: none; padding: 0px;&quot;&gt;&lt;div&gt;&lt;span style=&quot;background-color: transparent; color: light-dark(rgb(0, 0, 0), rgb(255, 255, 255));&quot;&gt;IS_NOT_HORIZONTAL = 7&lt;/span&gt;&lt;/div&gt;&lt;/blockquote&gt;&lt;blockquote style=&quot;margin: 0 0 0 40px; border: none; padding: 0px;&quot;&gt;&lt;div&gt;&lt;span style=&quot;background-color: transparent; color: light-dark(rgb(0, 0, 0), rgb(255, 255, 255));&quot;&gt;IS_NOT_VERTICAL = 8&lt;/span&gt;&lt;/div&gt;&lt;/blockquote&gt;&lt;blockquote style=&quot;margin: 0 0 0 40px; border: none; padding: 0px;&quot;&gt;&lt;div&gt;&lt;span style=&quot;background-color: transparent; color: light-dark(rgb(0, 0, 0), rgb(255, 255, 255));&quot;&gt;IS_NOT_DIAGONAL = 9&lt;/span&gt;&lt;/div&gt;&lt;/blockquote&gt;&lt;blockquote style=&quot;margin: 0 0 0 40px; border: none; padding: 0px;&quot;&gt;&lt;div&gt;&lt;span style=&quot;background-color: transparent; color: light-dark(rgb(0, 0, 0), rgb(255, 255, 255));&quot;&gt;IS_SO_FAR = 10&lt;/span&gt;&lt;/div&gt;&lt;/blockquote&gt;&lt;blockquote style=&quot;margin: 0 0 0 40px; border: none; padding: 0px;&quot;&gt;&lt;div&gt;&lt;span style=&quot;background-color: transparent; color: light-dark(rgb(0, 0, 0), rgb(255, 255, 255));&quot;&gt;PIECE_ON_THE_WAY = 11&lt;/span&gt;&lt;/div&gt;&lt;/blockquote&gt;&lt;blockquote style=&quot;margin: 0 0 0 40px; border: none; padding: 0px;&quot;&gt;&lt;div&gt;&lt;span style=&quot;background-color: transparent; color: light-dark(rgb(0, 0, 0), rgb(255, 255, 255));&quot;&gt;CANT_MOVE_AND_EAT = 12&lt;/span&gt;&lt;/div&gt;&lt;/blockquote&gt;&lt;blockquote style=&quot;margin: 0 0 0 40px; border: none; padding: 0px;&quot;&gt;&lt;div&gt;&lt;span style=&quot;background-color: transparent; color: light-dark(rgb(0, 0, 0), rgb(255, 255, 255));&quot;&gt;CANT_MOVE_WITHOUT_EATING = 13&lt;/span&gt;&lt;/div&gt;&lt;/blockquote&gt;&lt;blockquote style=&quot;margin: 0 0 0 40px; border: none; padding: 0px;&quot;&gt;&lt;div&gt;&lt;span style=&quot;background-color: transparent; color: light-dark(rgb(0, 0, 0), rgb(255, 255, 255));&quot;&gt;CANT_MOVE_THERE = 14&lt;/span&gt;&lt;/div&gt;&lt;/blockquote&gt;&lt;blockquote style=&quot;margin: 0 0 0 40px; border: none; padding: 0px;&quot;&gt;&lt;div&gt;&lt;div&gt;IS_NOT_THAT_WAY = 15&lt;/div&gt;&lt;/div&gt;&lt;/blockquote&gt;&lt;/blockquote&gt;" style="text;strokeColor=none;fillColor=none;align=left;verticalAlign=top;spacingLeft=4;spacingRight=4;overflow=hidden;rotatable=0;points=[[0,0.5],[1,0.5]];portConstraint=eastwest;whiteSpace=wrap;html=1;" parent="AER8yh7QAjx86mQW5SoI-6" vertex="1">
          <mxGeometry y="26" width="350" height="264" as="geometry" />
        </mxCell>
        <mxCell id="AER8yh7QAjx86mQW5SoI-7" value="" style="line;strokeWidth=1;fillColor=none;align=left;verticalAlign=middle;spacingTop=-1;spacingLeft=3;spacingRight=3;rotatable=0;labelPosition=right;points=[];portConstraint=eastwest;strokeColor=inherit;" parent="AER8yh7QAjx86mQW5SoI-6" vertex="1">
          <mxGeometry y="290" width="350" height="8" as="geometry" />
        </mxCell>
        <mxCell id="VuiYVt0eshxoId6qfpAP-1" value="&amp;lt;&amp;lt;Interface&amp;gt;&amp;gt;&lt;div&gt;Moved&lt;/div&gt;" style="swimlane;fontStyle=1;align=center;verticalAlign=top;childLayout=stackLayout;horizontal=1;startSize=38;horizontalStack=0;resizeParent=1;resizeParentMax=0;resizeLast=0;collapsible=1;marginBottom=0;whiteSpace=wrap;html=1;" vertex="1" parent="1">
          <mxGeometry x="-130" y="613" width="210" height="98" as="geometry" />
        </mxCell>
        <mxCell id="VuiYVt0eshxoId6qfpAP-3" value="" style="line;strokeWidth=1;fillColor=none;align=left;verticalAlign=middle;spacingTop=-1;spacingLeft=3;spacingRight=3;rotatable=0;labelPosition=right;points=[];portConstraint=eastwest;strokeColor=inherit;" vertex="1" parent="VuiYVt0eshxoId6qfpAP-1">
          <mxGeometry y="38" width="210" height="8" as="geometry" />
        </mxCell>
        <mxCell id="VuiYVt0eshxoId6qfpAP-4" value="+ hasMoved() : boolean" style="text;strokeColor=none;fillColor=none;align=left;verticalAlign=top;spacingLeft=4;spacingRight=4;overflow=hidden;rotatable=0;points=[[0,0.5],[1,0.5]];portConstraint=eastwest;whiteSpace=wrap;html=1;" vertex="1" parent="VuiYVt0eshxoId6qfpAP-1">
          <mxGeometry y="46" width="210" height="26" as="geometry" />
        </mxCell>
        <mxCell id="VuiYVt0eshxoId6qfpAP-9" value="+ setMoved(moved : boolean) : void" style="text;strokeColor=none;fillColor=none;align=left;verticalAlign=top;spacingLeft=4;spacingRight=4;overflow=hidden;rotatable=0;points=[[0,0.5],[1,0.5]];portConstraint=eastwest;whiteSpace=wrap;html=1;" vertex="1" parent="VuiYVt0eshxoId6qfpAP-1">
          <mxGeometry y="72" width="210" height="26" as="geometry" />
        </mxCell>
        <mxCell id="VuiYVt0eshxoId6qfpAP-6" style="edgeStyle=orthogonalEdgeStyle;rounded=0;orthogonalLoop=1;jettySize=auto;html=1;dashed=1;endArrow=block;endFill=0;endSize=20;" edge="1" parent="1" source="06TTXpgL2270FxeW5wfN-1" target="VuiYVt0eshxoId6qfpAP-1">
          <mxGeometry relative="1" as="geometry">
            <Array as="points">
              <mxPoint x="-90" y="800" />
              <mxPoint x="-30" y="800" />
            </Array>
            <mxPoint x="-30" y="892" as="sourcePoint" />
            <mxPoint x="350" y="702" as="targetPoint" />
          </mxGeometry>
        </mxCell>
        <mxCell id="VuiYVt0eshxoId6qfpAP-7" style="edgeStyle=orthogonalEdgeStyle;rounded=0;orthogonalLoop=1;jettySize=auto;html=1;dashed=1;endArrow=block;endFill=0;endSize=20;" edge="1" parent="1" source="06TTXpgL2270FxeW5wfN-11" target="VuiYVt0eshxoId6qfpAP-1">
          <mxGeometry relative="1" as="geometry">
            <Array as="points">
              <mxPoint x="70" y="800" />
              <mxPoint x="-30" y="800" />
            </Array>
            <mxPoint x="-20" y="892" as="sourcePoint" />
            <mxPoint x="40" y="695" as="targetPoint" />
          </mxGeometry>
        </mxCell>
        <mxCell id="VuiYVt0eshxoId6qfpAP-13" value="&lt;span style=&quot;font-size: 10px;&quot;&gt;Sobrecarga los metodos equals y hashCode para que el id del objeto sea la fila y la columna&lt;/span&gt;" style="shape=callout;whiteSpace=wrap;html=1;perimeter=calloutPerimeter;position2=0.61;base=29;fillColor=#dae8fc;strokeColor=#6c8ebf;align=center;size=36;position=0.67;" vertex="1" parent="1">
          <mxGeometry x="260" y="-420" width="280" height="140" as="geometry" />
        </mxCell>
        <mxCell id="SkFEskxKewbuhvQvfSpz-43" style="edgeStyle=orthogonalEdgeStyle;rounded=0;orthogonalLoop=1;jettySize=auto;html=1;endArrow=open;endFill=0;endSize=20;dashed=1;" parent="1" source="J2jW2XG6HsNSC65ffWOk-1" target="SkFEskxKewbuhvQvfSpz-39" edge="1">
          <mxGeometry relative="1" as="geometry">
            <Array as="points">
              <mxPoint x="-290" y="-300" />
              <mxPoint x="770" y="-300" />
            </Array>
          </mxGeometry>
        </mxCell>
      </root>
    </mxGraphModel>
  </diagram>
</mxfile>
